<?xml version="1.0" encoding="UTF-8"?>
<svg version="1.1" xmlns="http://www.w3.org/2000/svg" width="180" height="180">
<path d="M0 0 C2.1065693 0.00315246 4.21171931 -0.02034117 6.31811523 -0.0456543 C17.72948031 -0.10081447 27.95102995 1.82446624 38.37084961 6.56567383 C39.04857422 6.87085938 39.72629883 7.17604492 40.42456055 7.49047852 C61.97643537 17.43356728 76.69142445 33.90786066 86.30834961 55.31567383 C86.9599707 56.76586914 86.9599707 56.76586914 87.62475586 58.24536133 C91.79094485 68.11507842 92.6571822 77.38546687 92.62402344 88.00732422 C92.62087098 90.11389352 92.64436461 92.21904353 92.66967773 94.32543945 C92.7248379 105.73680453 90.7995572 115.95835417 86.05834961 126.37817383 C85.75316406 127.05589844 85.44797852 127.73362305 85.13354492 128.43188477 C75.19045616 149.98375959 58.71616278 164.69874867 37.30834961 174.31567383 C35.8581543 174.96729492 35.8581543 174.96729492 34.37866211 175.63208008 C24.50894502 179.79826907 15.23855657 180.66450642 4.61669922 180.63134766 C2.51012992 180.6281952 0.40497991 180.65168883 -1.70141602 180.67700195 C-13.11278109 180.73216212 -23.33433073 178.80688142 -33.75415039 174.06567383 C-34.431875 173.76048828 -35.10959961 173.45530273 -35.80786133 173.14086914 C-57.35973615 163.19778038 -72.07472523 146.723487 -81.69165039 125.31567383 C-82.12606445 124.34887695 -82.56047852 123.38208008 -83.00805664 122.38598633 C-87.17424563 112.51626924 -88.04048298 103.24588079 -88.00732422 92.62402344 C-88.00417176 90.51745414 -88.02766539 88.41230413 -88.05297852 86.3059082 C-88.10813869 74.89454312 -86.18285798 64.67299348 -81.44165039 54.25317383 C-81.13646484 53.57544922 -80.8312793 52.89772461 -80.5168457 52.19946289 C-70.57375694 30.64758807 -54.09946356 15.93259899 -32.69165039 6.31567383 C-31.72485352 5.88125977 -30.75805664 5.4468457 -29.76196289 4.99926758 C-19.8922458 0.83307859 -10.62185735 -0.03315876 0 0 Z " fill="#251817" transform="translate(87.691650390625,-0.315673828125)"/>
<path d="M0 0 C4.26623664 4.26623664 5.36642301 7.88151979 5.4375 13.8125 C5.38216821 17.10474149 5.10855845 20.02321855 4.1875 23.1875 C4.97125 23.001875 5.755 22.81625 6.5625 22.625 C9.1875 22.1875 9.1875 22.1875 11.1875 23.1875 C11.60402317 26.58910588 11.79980548 29.16899186 9.9921875 32.17578125 C6.01267071 37.00519484 6.01267071 37.00519484 3.171875 37.6328125 C0.36109584 38.41850274 -0.36889325 39.6991208 -1.8125 42.1875 C-2.37537211 44.5645229 -2.37537211 44.5645229 -2.625 47.0625 C-3.57416911 52.54658817 -5.48529471 54.76179581 -9.8125 58.1875 C-10.4725 58.1875 -11.1325 58.1875 -11.8125 58.1875 C-11.8125 58.8475 -11.8125 59.5075 -11.8125 60.1875 C-13.4625 60.5175 -15.1125 60.8475 -16.8125 61.1875 C-16.8125 62.1775 -16.8125 63.1675 -16.8125 64.1875 C-17.8025 64.6825 -17.8025 64.6825 -18.8125 65.1875 C-19.49979254 67.30596285 -19.49979254 67.30596285 -19.9375 69.75 C-20.10507813 70.57628906 -20.27265625 71.40257813 -20.4453125 72.25390625 C-20.56648438 72.89199219 -20.68765625 73.53007813 -20.8125 74.1875 C-18.21832094 72.99900401 -15.63897659 71.78833229 -13.0625 70.5625 C-12.33289063 70.23121094 -11.60328125 69.89992188 -10.8515625 69.55859375 C-5.86080794 67.15395746 -3.5443637 65.0027547 -0.8125 60.1875 C-0.4825 60.1875 -0.1525 60.1875 0.1875 60.1875 C-0.13586252 66.91344052 -1.46777818 73.24478369 -3.15917969 79.73828125 C-4.49338815 84.8658275 -5.68843045 90.00998441 -6.8125 95.1875 C-8.09197014 101.07572556 -9.48879561 106.91712384 -11 112.75 C-12.41733192 118.22985912 -13.31793223 123.54942746 -13.8125 129.1875 C-16.10098633 131.47598633 -22.49584571 130.54233921 -25.75976562 130.6171875 C-31.36203065 130.83887647 -35.69319866 131.85378497 -40.8125 134.1875 C-42.36427592 136.31197544 -42.36427592 136.31197544 -42.8125 139.1875 C-42.99296875 139.95449219 -43.1734375 140.72148437 -43.359375 141.51171875 C-43.87515324 143.73165616 -44.35527625 145.95488616 -44.8125 148.1875 C-47.95828774 146.80122066 -50.55005213 144.93538475 -53.27929688 142.86157227 C-61.01424931 137.02194657 -69.09809002 132.90627207 -77.94921875 129.02392578 C-80.6126253 127.82832426 -83.21319158 126.51558415 -85.8125 125.1875 C-85.83958567 123.58342672 -85.85893483 121.9792215 -85.875 120.375 C-85.88660156 119.48167969 -85.89820312 118.58835937 -85.91015625 117.66796875 C-85.8125 115.1875 -85.8125 115.1875 -84.8125 112.1875 C-84.7336932 110.04220365 -84.67436439 107.89617569 -84.625 105.75 C-84.30817802 99.09507084 -82.9294508 92.94753016 -81.0625 86.5625 C-80.82249268 85.70986572 -80.58248535 84.85723145 -80.33520508 83.97875977 C-78.74873142 78.83359189 -77.04200097 75.73919633 -72.8125 72.1875 C-72.07 71.48625 -71.3275 70.785 -70.5625 70.0625 C-67.51916441 67.98749846 -64.77345067 67.03470602 -61.2734375 65.9765625 C-58.68857307 65.1477647 -56.24507767 64.12962553 -53.75 63.0625 C-49.37839505 61.27007356 -45.51414586 60.53577006 -40.8125 60.1875 C-40.44125 61.26 -40.07 62.3325 -39.6875 63.4375 C-37.92349128 67.49882241 -35.80363409 69.15428075 -31.8125 71.1875 C-29.15119697 72.0266496 -26.55257448 72.62058804 -23.8125 73.1875 C-23.956875 71.929375 -24.10125 70.67125 -24.25 69.375 C-24.33121094 68.66730469 -24.41242188 67.95960937 -24.49609375 67.23046875 C-24.78420735 64.99353607 -24.78420735 64.99353607 -25.8125 62.1875 C-27.13657669 61.50263275 -28.47159241 60.83879797 -29.8125 60.1875 C-31.9140625 58.6484375 -31.9140625 58.6484375 -33.8125 56.1875 C-34.18591474 53.27254929 -34.3725126 50.66274564 -34.375 47.75 C-34.40807864 42.2447684 -34.61241329 38.86973214 -37.8125 34.1875 C-38 30.875 -38 30.875 -37.8125 28.1875 C-38.4725 28.1875 -39.1325 28.1875 -39.8125 28.1875 C-41.04434766 25.72380468 -40.97982342 23.9980499 -41 21.25 C-41.01417969 20.37472656 -41.02835938 19.49945313 -41.04296875 18.59765625 C-40.8125 16.1875 -40.8125 16.1875 -38.8125 13.1875 C-38.15507813 13.03796875 -37.49765625 12.8884375 -36.8203125 12.734375 C-34.68371635 12.37961636 -34.68371635 12.37961636 -33.6171875 10.515625 C-33.31039062 9.82984375 -33.00359375 9.1440625 -32.6875 8.4375 C-32.35363281 7.71691406 -32.01976562 6.99632812 -31.67578125 6.25390625 C-31.00753134 4.65433972 -30.4231944 3.01958321 -29.875 1.375 C-28.4218356 -1.61680906 -26.79518989 -2.42520237 -23.8125 -3.8125 C-15.13559797 -6.39211952 -7.43916265 -4.79412704 0 0 Z " fill="#F7AB15" transform="translate(103.8125,12.8125)"/>
<path d="M0 0 C-0.33 0.66 -0.66 1.32 -1 2 C-0.34 2 0.32 2 1 2 C0.67 3.65 0.34 5.3 0 7 C1.5778125 6.9690625 1.5778125 6.9690625 3.1875 6.9375 C6.32704904 6.98896802 8.96883396 7.26517187 12 8 C12 8.66 12 9.32 12 10 C11.175 9.835 10.35 9.67 9.5 9.5 C5.59882408 8.94268915 1.91972586 8.67097192 -2 9 C-3.12148437 9.08894531 -3.12148437 9.08894531 -4.265625 9.1796875 C-7.06741331 9.72289136 -8.68130514 10.29851169 -11 12 C-12.80367556 14.98245565 -14.29658564 17.869092 -15.61743164 21.08447266 C-16.39453125 22.9453125 -16.39453125 22.9453125 -18 26 C-20.13671875 26.8046875 -20.13671875 26.8046875 -22 27 C-23.38226016 29.76452033 -23.09525387 32.0461363 -23.0625 35.125 C-23.05347656 36.22070312 -23.04445312 37.31640625 -23.03515625 38.4453125 C-23.02355469 39.28835937 -23.01195312 40.13140625 -23 41 C-22.34 41 -21.68 41 -21 41 C-20.87882812 41.62648437 -20.75765625 42.25296875 -20.6328125 42.8984375 C-20.46523437 43.71570312 -20.29765625 44.53296875 -20.125 45.375 C-19.96257812 46.18710937 -19.80015625 46.99921875 -19.6328125 47.8359375 C-19.13341068 50.18673923 -19.13341068 50.18673923 -17 52 C-16.85482256 54.9093558 -16.81369204 57.719946 -16.875 60.625 C-16.88402344 61.42679688 -16.89304687 62.22859375 -16.90234375 63.0546875 C-16.92593777 65.03658523 -16.96180935 67.01832981 -17 69 C-15.515 69.495 -15.515 69.495 -14 70 C-10.68429494 72.84710434 -7.41004645 75.91088405 -6.546875 80.30859375 C-6.5625 82.5 -6.5625 82.5 -7 86 C-13.34912913 85.66583531 -17.32790299 84.41325507 -22 80 C-23.83218656 77.2915503 -24 76.31439938 -24 73 C-24.54527344 73.18175781 -25.09054688 73.36351563 -25.65234375 73.55078125 C-29.6015625 74.8671875 -33.55078125 76.18359375 -37.5 77.5 C-38.24121094 77.75136719 -38.98242188 78.00273438 -39.74609375 78.26171875 C-41.24918695 78.75406644 -42.76287378 79.21516953 -44.28515625 79.64453125 C-50.00358378 81.32180588 -54.95912749 83.49075363 -59 88 C-60.85285047 91.54188185 -61.93740915 95.15713502 -63 99 C-63.42925781 100.30130859 -63.42925781 100.30130859 -63.8671875 101.62890625 C-65.9593164 108.31375622 -66.48974592 114.85695275 -66.7890625 121.8125 C-67 125 -67 125 -68 128 C-68.06802967 129.72795352 -68.08495645 131.45835365 -68.0625 133.1875 C-68.05347656 134.08855469 -68.04445313 134.98960937 -68.03515625 135.91796875 C-68.02355469 136.60503906 -68.01195313 137.29210937 -68 138 C-67.42032471 138.25692627 -66.84064941 138.51385254 -66.2434082 138.77856445 C-63.59827705 139.9532089 -60.95538235 141.13280511 -58.3125 142.3125 C-56.94448242 142.91868164 -56.94448242 142.91868164 -55.54882812 143.53710938 C-51.20873355 145.47831531 -46.99703106 147.39982611 -43 150 C-45.99480917 150.8723412 -48.63575911 151.10829766 -51.75 151.0625 C-52.54921875 151.05347656 -53.3484375 151.04445312 -54.171875 151.03515625 C-55.07679687 151.01775391 -55.07679687 151.01775391 -56 151 C-56 152.65 -56 154.3 -56 156 C-50.52225234 157.58321067 -50.52225234 157.58321067 -45 159 C-45 159.66 -45 160.32 -45 161 C-42.36 161.33 -39.72 161.66 -37 162 C-38.02155527 164.78605983 -38.67872401 165.82313595 -41.3203125 167.27734375 C-44 168 -44 168 -46.10546875 167.19921875 C-62.33359693 155.41631893 -74.13708532 141.82222478 -81.875 123.25 C-82.16117187 122.56558838 -82.44734375 121.88117676 -82.7421875 121.17602539 C-86.57163476 111.58284575 -87.34780459 102.60090435 -87.31567383 92.30834961 C-87.31252137 90.20178031 -87.336015 88.0966303 -87.36132812 85.99023438 C-87.4164883 74.5788693 -85.49120759 64.35731966 -80.75 53.9375 C-80.44481445 53.25977539 -80.13962891 52.58205078 -79.82519531 51.88378906 C-69.88210655 30.33191424 -53.40781317 15.61692516 -32 6 C-31.03320312 5.56558594 -30.06640625 5.13117187 -29.0703125 4.68359375 C-19.27930222 0.55062835 -10.61156635 -0.29522132 0 0 Z " fill="#2E1B17" transform="translate(87,0)"/>
<path d="M0 0 C4.26623664 4.26623664 5.36642301 7.88151979 5.4375 13.8125 C5.38216821 17.10474149 5.10855845 20.02321855 4.1875 23.1875 C4.97125 23.001875 5.755 22.81625 6.5625 22.625 C9.1875 22.1875 9.1875 22.1875 11.1875 23.1875 C11.60402317 26.58910588 11.79980548 29.16899186 9.9921875 32.17578125 C6.01267071 37.00519484 6.01267071 37.00519484 3.171875 37.6328125 C0.36109584 38.41850274 -0.36889325 39.6991208 -1.8125 42.1875 C-2.37537211 44.5645229 -2.37537211 44.5645229 -2.625 47.0625 C-3.57416911 52.54658817 -5.48529471 54.76179581 -9.8125 58.1875 C-10.4725 58.1875 -11.1325 58.1875 -11.8125 58.1875 C-11.8125 58.8475 -11.8125 59.5075 -11.8125 60.1875 C-14.2875 60.6825 -14.2875 60.6825 -16.8125 61.1875 C-16.8125 62.1775 -16.8125 63.1675 -16.8125 64.1875 C-17.8025 64.6825 -17.8025 64.6825 -18.8125 65.1875 C-20.89604169 72.24839129 -21.03561393 78.86192601 -20.8125 86.1875 C-21.8025 86.1875 -22.7925 86.1875 -23.8125 86.1875 C-23.4825 82.2275 -23.1525 78.2675 -22.8125 74.1875 C-24.1325 73.8575 -25.4525 73.5275 -26.8125 73.1875 C-25.8225 73.1875 -24.8325 73.1875 -23.8125 73.1875 C-24.0290625 71.3003125 -24.0290625 71.3003125 -24.25 69.375 C-24.33121094 68.66730469 -24.41242188 67.95960937 -24.49609375 67.23046875 C-24.78420735 64.99353607 -24.78420735 64.99353607 -25.8125 62.1875 C-27.13657669 61.50263275 -28.47159241 60.83879797 -29.8125 60.1875 C-31.9140625 58.6484375 -31.9140625 58.6484375 -33.8125 56.1875 C-34.18591474 53.27254929 -34.3725126 50.66274564 -34.375 47.75 C-34.40807864 42.2447684 -34.61241329 38.86973214 -37.8125 34.1875 C-38 30.875 -38 30.875 -37.8125 28.1875 C-38.4725 28.1875 -39.1325 28.1875 -39.8125 28.1875 C-41.04434766 25.72380468 -40.97982342 23.9980499 -41 21.25 C-41.01417969 20.37472656 -41.02835938 19.49945313 -41.04296875 18.59765625 C-40.8125 16.1875 -40.8125 16.1875 -38.8125 13.1875 C-38.15507813 13.03796875 -37.49765625 12.8884375 -36.8203125 12.734375 C-34.68371635 12.37961636 -34.68371635 12.37961636 -33.6171875 10.515625 C-33.31039062 9.82984375 -33.00359375 9.1440625 -32.6875 8.4375 C-32.35363281 7.71691406 -32.01976563 6.99632812 -31.67578125 6.25390625 C-31.00753134 4.65433972 -30.4231944 3.01958321 -29.875 1.375 C-28.4218356 -1.61680906 -26.79518989 -2.42520237 -23.8125 -3.8125 C-15.13559797 -6.39211952 -7.43916265 -4.79412704 0 0 Z " fill="#B37E62" transform="translate(103.8125,12.8125)"/>
<path d="M0 0 C5.60090074 1.20593557 10.75957507 3.74605379 16 6 C17.670625 6.680625 17.670625 6.680625 19.375 7.375 C26.50247695 11.78724764 29.19302323 17.63027765 31.2421875 25.62890625 C32.29708668 31.02018539 32.64391935 36.45964067 32.9375 41.9375 C32.99526611 42.92041016 33.05303223 43.90332031 33.11254883 44.91601562 C33.378456 52.35380085 32.16163964 56.75754053 28 63 C26.0480957 63.4765625 26.0480957 63.4765625 23.67578125 63.625 C22.37930664 63.72554687 22.37930664 63.72554687 21.05664062 63.828125 C20.15107422 63.88484375 19.24550781 63.9415625 18.3125 64 C11.7963745 64.41703203 7.04164145 65.3630012 1 68 C-2.74609375 68.29296875 -2.74609375 68.29296875 -6.4375 68.1875 C-7.67371094 68.16042969 -8.90992187 68.13335937 -10.18359375 68.10546875 C-11.11300781 68.07066406 -12.04242188 68.03585938 -13 68 C-13.52821059 59.86164417 -12.08425873 52.25333264 -10.46191406 44.3203125 C-9.97497713 41.8743037 -9.5265593 39.42350922 -9.0859375 36.96875 C-3.7588768 7.51775361 -3.7588768 7.51775361 0 0 Z " fill="#EAE1DF" transform="translate(114,76)"/>
<path d="M0 0 C0.598125 0.226875 1.19625 0.45375 1.8125 0.6875 C1.8125 2.0075 1.8125 3.3275 1.8125 4.6875 C3.1325 4.6875 4.4525 4.6875 5.8125 4.6875 C5.93625 6.110625 5.93625 6.110625 6.0625 7.5625 C6.31 8.59375 6.5575 9.625 6.8125 10.6875 C8.72916667 11.85416667 8.72916667 11.85416667 10.8125 12.6875 C11.07675781 13.28046875 11.34101562 13.8734375 11.61328125 14.484375 C13.22614497 17.44742106 15.35972884 18.8112678 18.0625 20.8125 C23.42203056 25.05927652 27.0117553 29.43604875 29.8125 35.6875 C29.8125 36.3475 29.8125 37.0075 29.8125 37.6875 C27.9253125 38.2753125 27.9253125 38.2753125 26 38.875 C22.69495551 40.46025143 21.93805687 41.35663515 20.61328125 44.84765625 C19.88305891 48.12118956 19.27330397 51.36587138 18.8125 54.6875 C15.66671226 53.30122066 13.07494787 51.43538475 10.34570312 49.36157227 C2.61075069 43.52194657 -5.47309002 39.40627207 -14.32421875 35.52392578 C-16.9876253 34.32832426 -19.58819158 33.01558415 -22.1875 31.6875 C-22.21458567 30.08342672 -22.23393483 28.4792215 -22.25 26.875 C-22.26160156 25.98167969 -22.27320312 25.08835938 -22.28515625 24.16796875 C-22.1875 21.6875 -22.1875 21.6875 -21.1875 18.6875 C-20.96031504 16.12115139 -20.77141816 13.57071893 -20.625 11 C-20.58181641 10.29810547 -20.53863281 9.59621094 -20.49414062 8.87304688 C-20.3883264 7.14474794 -20.28743419 5.4161489 -20.1875 3.6875 C-19.1975 3.6875 -18.2075 3.6875 -17.1875 3.6875 C-15.52083333 5.6875 -13.85416667 7.6875 -12.1875 9.6875 C-11.1975 9.6875 -10.2075 9.6875 -9.1875 9.6875 C-8.589375 8.594375 -7.99125 7.50125 -7.375 6.375 C-3.40819058 -0.48688437 -3.40819058 -0.48688437 0 0 Z " fill="#F3A924" transform="translate(40.1875,106.3125)"/>
<path d="M0 0 C4.26623664 4.26623664 5.36642301 7.88151979 5.4375 13.8125 C5.38216821 17.10474149 5.10855845 20.02321855 4.1875 23.1875 C4.97125 23.001875 5.755 22.81625 6.5625 22.625 C9.1875 22.1875 9.1875 22.1875 11.1875 23.1875 C11.60402317 26.58910588 11.79980548 29.16899186 9.9921875 32.17578125 C6.01267071 37.00519484 6.01267071 37.00519484 3.171875 37.6328125 C0.36109584 38.41850274 -0.36889325 39.6991208 -1.8125 42.1875 C-2.37537211 44.5645229 -2.37537211 44.5645229 -2.625 47.0625 C-3.57416911 52.54658817 -5.48529471 54.76179581 -9.8125 58.1875 C-10.4725 58.1875 -11.1325 58.1875 -11.8125 58.1875 C-11.8125 58.8475 -11.8125 59.5075 -11.8125 60.1875 C-14.2875 60.6825 -14.2875 60.6825 -16.8125 61.1875 C-16.8125 62.1775 -16.8125 63.1675 -16.8125 64.1875 C-17.8025 64.6825 -17.8025 64.6825 -18.8125 65.1875 C-20.89604169 72.24839129 -21.03561393 78.86192601 -20.8125 86.1875 C-21.8025 86.1875 -22.7925 86.1875 -23.8125 86.1875 C-23.4825 82.2275 -23.1525 78.2675 -22.8125 74.1875 C-24.1325 73.8575 -25.4525 73.5275 -26.8125 73.1875 C-25.8225 73.1875 -24.8325 73.1875 -23.8125 73.1875 C-24.0290625 71.3003125 -24.0290625 71.3003125 -24.25 69.375 C-24.33121094 68.66730469 -24.41242188 67.95960937 -24.49609375 67.23046875 C-24.78420735 64.99353607 -24.78420735 64.99353607 -25.8125 62.1875 C-27.12897119 61.48812468 -28.46272151 60.82020867 -29.8125 60.1875 C-30.1425 59.5275 -30.4725 58.8675 -30.8125 58.1875 C-25.0625 60.0625 -25.0625 60.0625 -22.8125 61.1875 C-22.1525 58.8775 -21.4925 56.5675 -20.8125 54.1875 C-22.59243216 52.12652592 -23.68128559 51.23014468 -26.3125 50.375 C-29.7815252 48.72721303 -30.49327882 46.70542316 -31.8125 43.1875 C-31.4825 42.5275 -31.1525 41.8675 -30.8125 41.1875 C-30.1525 41.8475 -29.4925 42.5075 -28.8125 43.1875 C-26.51085434 43.50698171 -26.51085434 43.50698171 -23.9375 43.4375 C-23.07382813 43.44265625 -22.21015625 43.4478125 -21.3203125 43.453125 C-18.64949636 43.17023482 -17.03670399 42.68360134 -14.8125 41.1875 C-14.4825 40.1975 -14.1525 39.2075 -13.8125 38.1875 C-15.2975 37.6925 -15.2975 37.6925 -16.8125 37.1875 C-17.3075 35.7025 -17.3075 35.7025 -17.8125 34.1875 C-18.8025 33.5275 -19.7925 32.8675 -20.8125 32.1875 C-18.8325 31.6925 -18.8325 31.6925 -16.8125 31.1875 C-16.8125 29.8675 -16.8125 28.5475 -16.8125 27.1875 C-15.1625 27.1875 -13.5125 27.1875 -11.8125 27.1875 C-11.4825 26.5275 -11.1525 25.8675 -10.8125 25.1875 C-9.8125 26.1875 -9.8125 26.1875 -9.75 28.75 C-9.770625 29.554375 -9.79125 30.35875 -9.8125 31.1875 C-8.3275 31.6825 -8.3275 31.6825 -6.8125 32.1875 C-7.8102758 35.18082739 -8.5647025 36.13516315 -10.8125 38.1875 C-8.83713255 37.83963292 -8.83713255 37.83963292 -6.8125 37.1875 C-6.4825 36.5275 -6.1525 35.8675 -5.8125 35.1875 C-5.1525 35.1875 -4.4925 35.1875 -3.8125 35.1875 C-3.1525 33.8675 -2.4925 32.5475 -1.8125 31.1875 C-1.1525 31.1875 -0.4925 31.1875 0.1875 31.1875 C0.5175 32.1775 0.8475 33.1675 1.1875 34.1875 C2.19246852 31.17259443 2.29085303 29.14568308 2.25 26 C2.24097656 25.09894531 2.23195312 24.19789062 2.22265625 23.26953125 C2.21105469 22.58246094 2.19945312 21.89539063 2.1875 21.1875 C0.2075 21.1875 -1.7725 21.1875 -3.8125 21.1875 C-3.8125 20.5275 -3.8125 19.8675 -3.8125 19.1875 C-6.1225 18.8575 -8.4325 18.5275 -10.8125 18.1875 C-10.4825 17.5275 -10.1525 16.8675 -9.8125 16.1875 C-7.1725 16.1875 -4.5325 16.1875 -1.8125 16.1875 C-3.7925 15.1975 -5.7725 14.2075 -7.8125 13.1875 C-7.8125 12.5275 -7.8125 11.8675 -7.8125 11.1875 C-6.4925 10.8575 -5.1725 10.5275 -3.8125 10.1875 C-4.4725 9.5275 -5.1325 8.8675 -5.8125 8.1875 C-5.4375 6.25 -5.4375 6.25 -4.8125 4.1875 C-4.8125 3.1975 -4.8125 2.2075 -4.8125 1.1875 C-5.4725 1.1875 -6.1325 1.1875 -6.8125 1.1875 C-7.1425 0.5275 -7.4725 -0.1325 -7.8125 -0.8125 C-11.12794299 -1.91764766 -14.01660111 -2.13357631 -17.5 -2.375 C-18.67949219 -2.45878906 -19.85898438 -2.54257813 -21.07421875 -2.62890625 C-22.42966797 -2.71978516 -22.42966797 -2.71978516 -23.8125 -2.8125 C-23.8125 -3.1425 -23.8125 -3.4725 -23.8125 -3.8125 C-14.8704758 -6.04800605 -7.66976352 -4.94273649 0 0 Z " fill="#785647" transform="translate(103.8125,12.8125)"/>
<path d="M0 0 C5.60090074 1.20593557 10.75957507 3.74605379 16 6 C17.670625 6.680625 17.670625 6.680625 19.375 7.375 C23.87496654 10.16069357 27.3202759 13.9608277 29 19 C28.09636719 19.21914062 27.19273437 19.43828125 26.26171875 19.6640625 C25.08222656 19.98117188 23.90273437 20.29828125 22.6875 20.625 C21.51574219 20.92664063 20.34398437 21.22828125 19.13671875 21.5390625 C15.19321213 23.37576422 14.57448669 25.03575842 13 29 C11 32 11 32 7.875 32.6875 C6.451875 32.8421875 6.451875 32.8421875 5 33 C4.7834375 33.89074219 4.566875 34.78148437 4.34375 35.69921875 C2.72277535 39.68097334 0.87936886 41.20238221 -2.5 43.8125 C-3.4796875 44.58207031 -4.459375 45.35164063 -5.46875 46.14453125 C-8 48 -8 48 -10 49 C-9.63037276 39.50306859 -8.30575614 30.62619239 -6.04370117 21.40112305 C-5.55576721 19.41002572 -5.08431909 17.41553604 -4.61523438 15.41992188 C-2.10056419 4.90934482 -2.10056419 4.90934482 0 0 Z " fill="#EDA01B" transform="translate(114,76)"/>
<path d="M0 0 C0.598125 0.226875 1.19625 0.45375 1.8125 0.6875 C1.8125 2.0075 1.8125 3.3275 1.8125 4.6875 C3.1325 4.6875 4.4525 4.6875 5.8125 4.6875 C5.93625 6.110625 5.93625 6.110625 6.0625 7.5625 C6.31 8.59375 6.5575 9.625 6.8125 10.6875 C8.72916667 11.85416667 8.72916667 11.85416667 10.8125 12.6875 C11.07675781 13.28046875 11.34101562 13.8734375 11.61328125 14.484375 C13.22614497 17.44742106 15.35972884 18.8112678 18.0625 20.8125 C23.42203056 25.05927652 27.0117553 29.43604875 29.8125 35.6875 C29.8125 36.3475 29.8125 37.0075 29.8125 37.6875 C27.68756859 37.71443575 25.56254088 37.73386628 23.4375 37.75 C22.25414062 37.76160156 21.07078125 37.77320313 19.8515625 37.78515625 C16.8125 37.6875 16.8125 37.6875 14.8125 36.6875 C14.8125 36.0275 14.8125 35.3675 14.8125 34.6875 C11.8425 34.1925 11.8425 34.1925 8.8125 33.6875 C8.1525 29.3975 7.4925 25.1075 6.8125 20.6875 C5.8225 20.3575 4.8325 20.0275 3.8125 19.6875 C2.8225 22.1625 2.8225 22.1625 1.8125 24.6875 C-1.95926902 24.6875 -2.99929823 24.52759876 -6.125 22.875 C-6.82109375 22.51148438 -7.5171875 22.14796875 -8.234375 21.7734375 C-9.80937706 20.89773635 -11.34883845 19.95828749 -12.875 19 C-15.49202927 17.3549283 -15.49202927 17.3549283 -20.1875 16.6875 C-20.1875 12.3975 -20.1875 8.1075 -20.1875 3.6875 C-19.1975 3.6875 -18.2075 3.6875 -17.1875 3.6875 C-15.52083333 5.6875 -13.85416667 7.6875 -12.1875 9.6875 C-11.1975 9.6875 -10.2075 9.6875 -9.1875 9.6875 C-8.589375 8.594375 -7.99125 7.50125 -7.375 6.375 C-3.40819058 -0.48688437 -3.40819058 -0.48688437 0 0 Z " fill="#E9DAD2" transform="translate(40.1875,106.3125)"/>
<path d="M0 0 C2.5 1.8125 2.5 1.8125 4 4 C4 5.32 4 6.64 4 8 C4.99 8 5.98 8 7 8 C6.34 9.32 5.68 10.64 5 12 C3.35 12 1.7 12 0 12 C-0.12375 13.216875 -0.2475 14.43375 -0.375 15.6875 C-0.78891306 19.06479059 -1.54573451 21.89756695 -3 25 C-4.65 25 -6.3 25 -8 25 C-8 24.01 -8 23.02 -8 22 C-9.98 22.33 -11.96 22.66 -14 23 C-14 24.32 -14 25.64 -14 27 C-13.34 26.34 -12.68 25.68 -12 25 C-9.875 25.375 -9.875 25.375 -8 26 C-8 26.99 -8 27.98 -8 29 C-7.34 29.33 -6.68 29.66 -6 30 C-7.98 30.33 -9.96 30.66 -12 31 C-11.360625 31.37125 -10.72125 31.7425 -10.0625 32.125 C-7.3346946 34.6048231 -7.23050155 36.38880901 -7 40 C-7.33 40.66 -7.66 41.32 -8 42 C-10.64 42 -13.28 42 -16 42 C-14.44374906 47.12981097 -14.44374906 47.12981097 -10.5 50.25 C-9.675 50.4975 -8.85 50.745 -8 51 C-6.1875 52.625 -6.1875 52.625 -5 54 C-5.66 56.31 -6.32 58.62 -7 61 C-10.97698697 61 -13.5743797 60.14373026 -17.046875 58.22265625 C-20.34846842 54.46544294 -19.91637412 50.06160967 -19.83837891 45.23266602 C-19.76499132 40.43747865 -20.29201326 38.09566154 -23 34 C-23.765625 30.84375 -23.765625 30.84375 -24.25 27.5 C-24.42015625 26.3965625 -24.5903125 25.293125 -24.765625 24.15625 C-24.98805158 21.16090534 -24.7546033 18.88905263 -24 16 C-23.01 16 -22.02 16 -21 16 C-21.57584432 18.38564077 -22.22227595 20.66682784 -23 23 C-20.33563616 21.94463635 -20.33563616 21.94463635 -19 17 C-14.38 17 -9.76 17 -5 17 C-4.17189174 13.68756695 -3.90721572 11.34023421 -4 8 C-4.721875 7.855625 -5.44375 7.71125 -6.1875 7.5625 C-8.79166667 7.04166667 -11.39583333 6.52083333 -14 6 C-9.84088206 -0.51595143 -7.70664644 -1.97996845 0 0 Z " fill="#D6A286" transform="translate(89,13)"/>
<path d="M0 0 C0.33 0 0.66 0 1 0 C0.67663748 6.72594052 -0.65527818 13.05728369 -2.34667969 19.55078125 C-3.68088815 24.6783275 -4.87593045 29.82248441 -6 35 C-7.27947014 40.88822556 -8.67629561 46.72962384 -10.1875 52.5625 C-11.60483192 58.04235912 -12.50543223 63.36192746 -13 69 C-14.54950268 70.54950268 -16.09990594 70.21655193 -18.25390625 70.31640625 C-19.10791016 70.35830078 -19.96191406 70.40019531 -20.84179688 70.44335938 C-21.73962891 70.48267578 -22.63746094 70.52199219 -23.5625 70.5625 C-24.46419922 70.60568359 -25.36589844 70.64886719 -26.29492188 70.69335938 C-28.52978485 70.79978142 -30.76476308 70.90179988 -33 71 C-32.91245449 69.24908981 -32.80426627 67.49920449 -32.6875 65.75 C-32.62949219 64.77546875 -32.57148437 63.8009375 -32.51171875 62.796875 C-31.94674643 59.70893467 -31.01954958 58.34927196 -29 56 C-28.30419733 54.68163705 -27.62775567 53.35208914 -27 52 C-26.1679418 57.72040011 -25.87963336 63.22240116 -26 69 C-25.34 69 -24.68 69 -24 69 C-24 60.75 -24 52.5 -24 44 C-22.02 43.505 -22.02 43.505 -20 43 C-19.34 42.34 -18.68 41.68 -18 41 C-17.34 42.32 -16.68 43.64 -16 45 C-15.38125 44.175 -14.7625 43.35 -14.125 42.5 C-13.42375 41.675 -12.7225 40.85 -12 40 C-11.34 40 -10.68 40 -10 40 C-9.95875 38.7625 -9.9175 37.525 -9.875 36.25 C-9.85179688 35.55390625 -9.82859375 34.8578125 -9.8046875 34.140625 C-9.85956714 31.9436166 -9.85956714 31.9436166 -11.08203125 30.0546875 C-12.34340291 27.231362 -11.73645348 25.78133254 -10.8125 22.875 C-10.55082031 22.00617188 -10.28914063 21.13734375 -10.01953125 20.2421875 C-9 18 -9 18 -6 16 C-5.27034634 13.43717258 -5.27034634 13.43717258 -5 11 C-8.0743722 12.11795353 -10.82715412 13.44985661 -13.625 15.125 C-17 17 -17 17 -20 17 C-20.33 17.99 -20.66 18.98 -21 20 C-21 18.02 -21 16.04 -21 14 C-20.03578125 13.61328125 -19.0715625 13.2265625 -18.078125 12.828125 C-16.8018675 12.3026072 -15.52583769 11.77653619 -14.25 11.25 C-13.61578125 10.99734375 -12.9815625 10.7446875 -12.328125 10.484375 C-7.35638702 8.41281751 -4.50114741 6.00152988 -1.3125 1.75 C-0.879375 1.1725 -0.44625 0.595 0 0 Z " fill="#F0A015" transform="translate(103,73)"/>
<path d="M0 0 C1.65 0 3.3 0 5 0 C4.67 2.64 4.34 5.28 4 8 C3.34 8 2.68 8 2 8 C1.01 11.3 0.02 14.6 -1 18 C-0.34 18.66 0.32 19.32 1 20 C1.23780112 23.10360942 0.82174404 26.00427488 0 29 C-2.4375 31.8125 -2.4375 31.8125 -5 34 C-6.29519995 36.16620544 -6.29519995 36.16620544 -7 38 C-7.66 36.35 -8.32 34.7 -9 33 C-10.32 33 -11.64 33 -13 33 C-13.33 41.25 -13.66 49.5 -14 58 C-14.66 58 -15.32 58 -16 58 C-16.02505615 57.410979 -16.0501123 56.82195801 -16.07592773 56.21508789 C-16.19332361 53.49741329 -16.31538715 50.77996658 -16.4375 48.0625 C-16.47681641 47.13630859 -16.51613281 46.21011719 -16.55664062 45.25585938 C-16.82079121 39.46486581 -17.29764309 33.75460497 -18 28 C-18.66 31.63 -19.32 35.26 -20 39 C-20.33 39 -20.66 39 -21 39 C-21.36632124 35.60536343 -21.71589775 32.20920203 -22.0625 28.8125 C-22.2181543 27.37293945 -22.2181543 27.37293945 -22.37695312 25.90429688 C-22.47041016 24.97294922 -22.56386719 24.04160156 -22.66015625 23.08203125 C-22.74918213 22.22843018 -22.83820801 21.3748291 -22.92993164 20.49536133 C-23.07344609 15.38434665 -21.97868581 12.45879868 -18.5625 8.6875 C-17.94503906 7.99011719 -17.32757813 7.29273437 -16.69140625 6.57421875 C-15 5 -15 5 -13 5 C-12.67 4.34 -12.34 3.68 -12 3 C-12.33 6.96 -12.66 10.92 -13 15 C-12.01 15 -11.02 15 -10 15 C-10 12.03 -10 9.06 -10 6 C-9.36191406 5.73445313 -8.72382812 5.46890625 -8.06640625 5.1953125 C-6.82697266 4.66550781 -6.82697266 4.66550781 -5.5625 4.125 C-4.73878906 3.77695313 -3.91507813 3.42890625 -3.06640625 3.0703125 C-0.84253285 2.1755063 -0.84253285 2.1755063 0 0 Z " fill="#F0A117" transform="translate(93,84)"/>
<path d="M0 0 C0 1.65 0 3.3 0 5 C-1.65 5.66 -3.3 6.32 -5 7 C-5.33 10.96 -5.66 14.92 -6 19 C-6.33 17.68 -6.66 16.36 -7 15 C-7.66 15 -8.32 15 -9 15 C-8.979375 16.093125 -8.95875 17.18625 -8.9375 18.3125 C-9 22 -9 22 -10 25 C-10.99 25 -11.98 25 -13 25 C-13.66 22.36 -14.32 19.72 -15 17 C-14.93039063 17.78503906 -14.86078125 18.57007812 -14.7890625 19.37890625 C-14.29193335 29.02557899 -14.29193335 29.02557899 -17.875 33 C-18.40867187 33.495 -18.94234375 33.99 -19.4921875 34.5 C-21.1860731 36.18510899 -22.03598504 37.82862649 -23 40 C-27.08689476 39.21130101 -29.39532504 37.82949575 -32.0546875 34.62890625 C-34.23926499 28.55361431 -31.32187151 20.8014329 -29 15 C-24.60986997 7.35093909 -18.6422902 3.53735872 -10.25 1.125 C-6.74237661 0.23270984 -3.6183557 -0.11714101 0 0 Z " fill="#F9B228" transform="translate(54,77)"/>
<path d="M0 0 C0.33 0 0.66 0 1 0 C1.25689844 3.68611023 1.4754918 7.37355724 1.6875 11.0625 C1.76033203 12.10083984 1.83316406 13.13917969 1.90820312 14.20898438 C2.33175474 22.05714663 1.39054964 26.41417554 -3 33 C-5.24658203 33.52416992 -5.24658203 33.52416992 -8.0078125 33.73046875 C-9.48701172 33.85131836 -9.48701172 33.85131836 -10.99609375 33.97460938 C-12.02863281 34.04486328 -13.06117188 34.11511719 -14.125 34.1875 C-15.68541016 34.3102832 -15.68541016 34.3102832 -17.27734375 34.43554688 C-19.85087437 34.63623504 -22.42469427 34.82382151 -25 35 C-24.50242187 33.93007812 -24.00484375 32.86015625 -23.4921875 31.7578125 C-22.27881041 28.93134089 -21.72313849 26.97322257 -22.125 23.875 C-22 20 -22 20 -19.85546875 17.58984375 C-18.91316406 16.73519531 -17.97085938 15.88054687 -17 15 C-16.04480469 14.11699219 -15.08960938 13.23398438 -14.10546875 12.32421875 C-12.66107422 11.01904297 -12.66107422 11.01904297 -11.1875 9.6875 C-10.21167969 8.80449219 -9.23585937 7.92148438 -8.23046875 7.01171875 C-7.49441406 6.34785156 -6.75835937 5.68398437 -6 5 C-4.35 5.66 -2.7 6.32 -1 7 C-0.67 4.69 -0.34 2.38 0 0 Z " fill="#F2A61E" transform="translate(145,106)"/>
<path d="M0 0 C0.66 0.33 1.32 0.66 2 1 C2.625 3.5625 2.625 3.5625 3 6 C3.66 6 4.32 6 5 6 C6.6875 7 6.6875 7 8 9 C7.51418842 14.37284479 6.55677595 19.63742879 5.5625 24.9375 C4.28866653 31.81204691 3.3836226 38.67203134 2.82250977 45.64233398 C2.625 47.68359375 2.625 47.68359375 2 51 C-1 53 -1 53 -3.5625 52.6875 C-6 52 -6 52 -8 51 C-10.4303103 43.7090691 -8.70160897 37.09745997 -6.78344727 29.88598633 C-5.07863135 23.46379558 -3.64500467 16.99600666 -2.25 10.5 C-2.02739502 9.46601074 -1.80479004 8.43202148 -1.57543945 7.36669922 C-1.04821737 4.91156929 -0.52297337 2.45603788 0 0 Z " fill="#2D2622" transform="translate(99,94)"/>
<path d="M0 0 C0.33 3.3 0.66 6.6 1 10 C1.99 9.01 2.98 8.02 4 7 C4 7.99 4 8.98 4 10 C5.65 10 7.3 10 9 10 C10.19875732 15.44889691 10.01092008 18.26855416 7 23 C5.28004809 25.37517168 4.34689924 25.90460271 1.5 26.6875 C-3.33845649 27.11950504 -8.14596416 27.07773367 -13 27 C-13.52645603 12.99042021 -13.52645603 12.99042021 -11 8 C-3.05342237 0 -3.05342237 0 0 0 Z " fill="#C7B6B1" transform="translate(114,117)"/>
<path d="M0 0 C0.33 0 0.66 0 1 0 C1.0825 0.94875 1.165 1.8975 1.25 2.875 C1.4975 3.90625 1.745 4.9375 2 6 C3.91666667 7.16666667 3.91666667 7.16666667 6 8 C6.39638672 8.88945313 6.39638672 8.88945313 6.80078125 9.796875 C8.41364497 12.75992106 10.54722884 14.1237678 13.25 16.125 C18.60953056 20.37177652 22.1992553 24.74854875 25 31 C25 31.66 25 32.32 25 33 C22.87506859 33.02693575 20.75004088 33.04636628 18.625 33.0625 C16.84996094 33.07990234 16.84996094 33.07990234 15.0390625 33.09765625 C12 33 12 33 10 32 C10 31.34 10 30.68 10 30 C8.02 29.67 6.04 29.34 4 29 C3.90203125 28.08476562 3.8040625 27.16953125 3.703125 26.2265625 C3.55359375 25.03804687 3.4040625 23.84953125 3.25 22.625 C3.11078125 21.44164062 2.9715625 20.25828125 2.828125 19.0390625 C2.55484375 18.03617188 2.2815625 17.03328125 2 16 C0.68 15.34 -0.64 14.68 -2 14 C-1.34 9.38 -0.68 4.76 0 0 Z " fill="#E3D3CB" transform="translate(45,111)"/>
<path d="M0 0 C-0.99 0.33 -1.98 0.66 -3 1 C-2.98839844 2.18078125 -2.97679688 3.3615625 -2.96484375 4.578125 C-2.95546248 6.13541508 -2.94636264 7.69270688 -2.9375 9.25 C-2.92912109 10.02730469 -2.92074219 10.80460937 -2.91210938 11.60546875 C-2.90727539 12.73662109 -2.90727539 12.73662109 -2.90234375 13.890625 C-2.89448853 14.92751465 -2.89448853 14.92751465 -2.88647461 15.98535156 C-3.00562029 18.09973898 -3.42381763 19.96641515 -4 22 C-2.68 22.66 -1.36 23.32 0 24 C-0.33 26.64 -0.66 29.28 -1 32 C-5.08443115 33.53166168 -8.79455657 32.63081652 -13 32 C-13 33.32 -13 34.64 -13 36 C-14.32 36 -15.64 36 -17 36 C-17 34.68 -17 33.36 -17 32 C-17.99 32 -18.98 32 -20 32 C-20.67453101 24.31516461 -21.1567564 16.71589817 -21 9 C-20.67 9 -20.34 9 -20 9 C-19.6603981 10.87387477 -19.32861309 12.74916697 -19 14.625 C-18.814375 15.66914062 -18.62875 16.71328125 -18.4375 17.7890625 C-18.01284203 20.90574865 -17.92454794 23.85930812 -18 27 C-17.01 27 -16.02 27 -15 27 C-14.67 23.7 -14.34 20.4 -14 17 C-13.34 17 -12.68 17 -12 17 C-11.6596875 15.081875 -11.6596875 15.081875 -11.3125 13.125 C-10.77734375 10.9140625 -10.77734375 10.9140625 -10 9 C-7.375 7.5 -7.375 7.5 -5 7 C-5 5.35 -5 3.7 -5 2 C-5.99 1.67 -6.98 1.34 -8 1 C-4.93251126 -0.86240388 -3.40254489 -1.2151946 0 0 Z " fill="#DD9013" transform="translate(59,75)"/>
<path d="M0 0 C5.60090074 1.20593557 10.75957507 3.74605379 16 6 C17.670625 6.680625 17.670625 6.680625 19.375 7.375 C23.87496654 10.16069357 27.3202759 13.9608277 29 19 C28.09636719 19.21914062 27.19273437 19.43828125 26.26171875 19.6640625 C25.08222656 19.98117188 23.90273437 20.29828125 22.6875 20.625 C21.51574219 20.92664063 20.34398437 21.22828125 19.13671875 21.5390625 C15.19321213 23.37576422 14.57448669 25.03575842 13 29 C12.34 29.99 11.68 30.98 11 32 C7.875 32.1875 7.875 32.1875 5 32 C5.3618502 24.03929555 9.52029302 17.65859705 13.19140625 10.76171875 C14.13904679 9.02012285 14.13904679 9.02012285 14 7 C10.39007621 7.65585189 10.39007621 7.65585189 7 9 C6.67 8.34 6.34 7.68 6 7 C3.36 7.66 0.72 8.32 -2 9 C-1.125 2.25 -1.125 2.25 0 0 Z " fill="#E39621" transform="translate(114,76)"/>
<path d="M0 0 C8.92593941 0.19648294 13.57922786 3.21538869 20.2265625 8.99609375 C22.67623564 11.02303569 25.10782131 12.63408381 27.875 14.1875 C27.545 15.1775 27.215 16.1675 26.875 17.1875 C24.8125 17.875 24.8125 17.875 22.875 18.1875 C22.875 19.5075 22.875 20.8275 22.875 22.1875 C22.215 22.1875 21.555 22.1875 20.875 22.1875 C20.545 22.8475 20.215 23.5075 19.875 24.1875 C18.22563087 23.40322648 16.58058873 22.60984741 14.9375 21.8125 C14.02097656 21.37164062 13.10445312 20.93078125 12.16015625 20.4765625 C9.875 19.1875 9.875 19.1875 8.875 17.1875 C9.679375 16.73375 10.48375 16.28 11.3125 15.8125 C13.96356572 14.44024335 13.96356572 14.44024335 14.875 12.1875 C11.575 12.1875 8.275 12.1875 4.875 12.1875 C5.535 11.8575 6.195 11.5275 6.875 11.1875 C6.875 10.5275 6.875 9.8675 6.875 9.1875 C6.17375 9.06375 5.4725 8.94 4.75 8.8125 C1.69843613 8.14911655 -1.17840938 7.21538045 -4.125 6.1875 C-4.50718767 4.53135343 -4.83895102 2.86292976 -5.125 1.1875 C-3.58263775 -0.35486225 -2.14043321 0.01813926 0 0 Z " fill="#0A0809" transform="translate(35.125,149.8125)"/>
<path d="M0 0 C0.66 0.33 1.32 0.66 2 1 C2 2.65 2 4.3 2 6 C2.99 6.33 3.98 6.66 5 7 C4.0022242 9.99332739 3.2477975 10.94766315 1 13 C1.99 13.33 2.98 13.66 4 14 C-0.03037535 18.64060824 -3.24488834 20.39864526 -9.4375 20.875 C-11.29087957 20.94322256 -13.14537523 20.99390928 -15 21 C-14.36191406 21.37511719 -13.72382812 21.75023438 -13.06640625 22.13671875 C-11.82697266 22.90435547 -11.82697266 22.90435547 -10.5625 23.6875 C-9.73878906 24.18636719 -8.91507813 24.68523438 -8.06640625 25.19921875 C-5.56280677 27.38099448 -5.30406442 28.75480334 -5 32 C-5.66 32 -6.32 32 -7 32 C-7.33 33.98 -7.66 35.96 -8 38 C-7.34 38.33 -6.68 38.66 -6 39 C-6.31710938 39.71285156 -6.63421875 40.42570312 -6.9609375 41.16015625 C-8.01062161 44.02902973 -8.39249769 46.40205321 -8.625 49.4375 C-8.69847656 50.39140625 -8.77195312 51.3453125 -8.84765625 52.328125 C-9.01280101 55.22450995 -9.07838948 58.09958929 -9 61 C-9.99 61 -10.98 61 -12 61 C-11.67 57.04 -11.34 53.08 -11 49 C-12.32 48.67 -13.64 48.34 -15 48 C-14.01 48 -13.02 48 -12 48 C-12.144375 46.741875 -12.28875 45.48375 -12.4375 44.1875 C-12.51871094 43.47980469 -12.59992188 42.77210937 -12.68359375 42.04296875 C-12.97170735 39.80603607 -12.97170735 39.80603607 -14 37 C-15.31647119 36.30062468 -16.65022151 35.63270867 -18 35 C-18.33 34.34 -18.66 33.68 -19 33 C-13.25 34.875 -13.25 34.875 -11 36 C-10.34 33.69 -9.68 31.38 -9 29 C-10.77993216 26.93902592 -11.86878559 26.04264468 -14.5 25.1875 C-17.9690252 23.53971303 -18.68077882 21.51792316 -20 18 C-19.67 17.34 -19.34 16.68 -19 16 C-18.34 16.66 -17.68 17.32 -17 18 C-14.69835434 18.31948171 -14.69835434 18.31948171 -12.125 18.25 C-11.26132813 18.25515625 -10.39765625 18.2603125 -9.5078125 18.265625 C-6.83699636 17.98273482 -5.22420399 17.49610134 -3 16 C-2.67 15.01 -2.34 14.02 -2 13 C-2.99 12.67 -3.98 12.34 -5 12 C-5.33 11.01 -5.66 10.02 -6 9 C-6.99 8.34 -7.98 7.68 -9 7 C-7.68 6.67 -6.36 6.34 -5 6 C-5 4.68 -5 3.36 -5 2 C-3.35 2 -1.7 2 0 2 C0 1.34 0 0.68 0 0 Z " fill="#9E6B51" transform="translate(92,38)"/>
<path d="M0 0 C6.11318245 -0.7003646 10.48499837 1.7455291 15.8125 4.375 C16.68326172 4.7875 17.55402344 5.2 18.45117188 5.625 C24.86133013 8.72266026 24.86133013 8.72266026 26 11 C21.71 11 17.42 11 13 11 C13 12.65 13 14.3 13 16 C18.47774766 17.58321067 18.47774766 17.58321067 24 19 C24 19.66 24 20.32 24 21 C26.64 21.33 29.28 21.66 32 22 C30.97844473 24.78605983 30.32127599 25.82313595 27.6796875 27.27734375 C25 28 25 28 22.89453125 27.19921875 C3.61854267 13.20333211 3.61854267 13.20333211 -1 5 C-0.67578125 2.265625 -0.67578125 2.265625 0 0 Z " fill="#1B1515" transform="translate(18,140)"/>
<path d="M0 0 C0.33 0 0.66 0 1 0 C1.16592268 12.01211035 0.64246135 23.94524751 0 35.9375 C-0.09670786 37.79620559 -0.19306421 39.6549295 -0.2890625 41.51367188 C-0.52200136 46.00933552 -0.75965548 50.50472644 -1 55 C-1.66 55 -2.32 55 -3 55 C-3.02505615 54.410979 -3.0501123 53.82195801 -3.07592773 53.21508789 C-3.19332361 50.49741329 -3.31538715 47.77996658 -3.4375 45.0625 C-3.47681641 44.13630859 -3.51613281 43.21011719 -3.55664062 42.25585938 C-3.82079121 36.46486581 -4.29764309 30.75460497 -5 25 C-5.66 28.63 -6.32 32.26 -7 36 C-7.33 36 -7.66 36 -8 36 C-8.36632124 32.60536343 -8.71589775 29.20920203 -9.0625 25.8125 C-9.2181543 24.37293945 -9.2181543 24.37293945 -9.37695312 22.90429688 C-9.47041016 21.97294922 -9.56386719 21.04160156 -9.66015625 20.08203125 C-9.74918213 19.22843018 -9.83820801 18.3748291 -9.92993164 17.49536133 C-10.07344609 12.38434665 -8.97868581 9.45879868 -5.5625 5.6875 C-4.94503906 4.99011719 -4.32757813 4.29273437 -3.69140625 3.57421875 C-2 2 -2 2 0 2 C0 1.34 0 0.68 0 0 Z " fill="#FAAF18" transform="translate(80,87)"/>
<path d="M0 0 C2.77042109 2.77042109 2.39796106 4.76533805 2.625 8.625 C2.69976562 9.81351563 2.77453125 11.00203125 2.8515625 12.2265625 C2.92503906 13.59941406 2.92503906 13.59941406 3 15 C5.97 15.495 5.97 15.495 9 16 C9 16.66 9 17.32 9 18 C12.96 18.33 16.92 18.66 21 19 C20.21238281 19.52078125 19.42476562 20.0415625 18.61328125 20.578125 C15.40171462 23.55446477 14.99567593 25.49644246 14.1875 29.75 C13.95417969 30.92046875 13.72085938 32.0909375 13.48046875 33.296875 C13.32191406 34.18890625 13.16335937 35.0809375 13 36 C9.41486894 34.37815499 6.41007677 32.20743761 3.25 29.875 C2.26515625 29.15054688 1.2803125 28.42609375 0.265625 27.6796875 C-0.48203125 27.12539062 -1.2296875 26.57109375 -2 26 C-0.68 25.67 0.64 25.34 2 25 C1.51015625 24.37609375 1.0203125 23.7521875 0.515625 23.109375 C-1.59849884 18.77215187 -1.36404987 15.00445403 -1.25 10.25 C-1.24484375 9.37472656 -1.2396875 8.49945313 -1.234375 7.59765625 C-1.15445938 1.15445938 -1.15445938 1.15445938 0 0 Z " fill="#DE9216" transform="translate(46,125)"/>
<path d="M0 0 C0.33 0 0.66 0 1 0 C1.25689844 3.68611023 1.4754918 7.37355724 1.6875 11.0625 C1.76033203 12.10083984 1.83316406 13.13917969 1.90820312 14.20898438 C2.33175474 22.05714663 1.39054964 26.41417554 -3 33 C-5.1640625 33.29296875 -5.1640625 33.29296875 -7.625 33.1875 C-8.44226563 33.16042969 -9.25953125 33.13335937 -10.1015625 33.10546875 C-10.72804687 33.07066406 -11.35453125 33.03585938 -12 33 C-11.34 31.68 -10.68 30.36 -10 29 C-11.65 29 -13.3 29 -15 29 C-14 27 -14 27 -11 26 C-10.67 25.34 -10.34 24.68 -10 24 C-11.32 24 -12.64 24 -14 24 C-13.9375 22.25 -13.9375 22.25 -13 20 C-11.865625 19.46375 -10.73125 18.9275 -9.5625 18.375 C-6.87973558 17.02262285 -6.14499877 16.39624664 -5.09375 13.5234375 C-4.61310051 11.0141644 -4.23781594 8.54317458 -4 6 C-3.01 6.33 -2.02 6.66 -1 7 C-0.67 4.69 -0.34 2.38 0 0 Z " fill="#DE9015" transform="translate(145,106)"/>
<path d="M0 0 C0.33 0 0.66 0 1 0 C1.06058594 0.97582031 1.12117188 1.95164062 1.18359375 2.95703125 C1.26738281 4.22933594 1.35117188 5.50164062 1.4375 6.8125 C1.51871094 8.07707031 1.59992188 9.34164062 1.68359375 10.64453125 C1.87184547 13.99181893 1.87184547 13.99181893 3 17 C3.33 13.04 3.66 9.08 4 5 C4.33 5 4.66 5 5 5 C5.33 13.25 5.66 21.5 6 30 C5.34 30 4.68 30 4 30 C4 32.97 4 35.94 4 39 C-0.18185421 35.47412292 -4.19095875 31.92446674 -8 28 C-6.88856411 25.17866274 -5.73189557 22.39676502 -4.5 19.625 C-1.80897109 13.12168013 -0.59975322 6.96029396 0 0 Z " fill="#F5A718" transform="translate(63,97)"/>
<path d="M0 0 C1.73955334 6.43013467 2.24991456 12.34949576 2 19 C1.0925 18.608125 0.185 18.21625 -0.75 17.8125 C-1.8225 17.544375 -2.895 17.27625 -4 17 C-6.11652637 18.27479815 -6.11652637 18.27479815 -8 20 C-10.75 20.6875 -10.75 20.6875 -13 21 C-12.34 20.236875 -11.68 19.47375 -11 18.6875 C-8.70149462 16.15722061 -8.70149462 16.15722061 -9 13 C-9.721875 13.5775 -10.44375 14.155 -11.1875 14.75 C-13.79166667 16.83333333 -16.39583333 18.91666667 -19 21 C-17.31268143 17.29115966 -15.0622868 14.6722904 -12.33984375 11.68359375 C-10.78521084 9.92781556 -10.78521084 9.92781556 -10 7 C-11.65 7.33 -13.3 7.66 -15 8 C-14.5 5.6875 -14.5 5.6875 -13 3 C-8.93123305 0.65931609 -4.69649201 -0.44029613 0 0 Z " fill="#D0C6C3" transform="translate(143,95)"/>
<path d="M0 0 C2.93150405 4.39725608 3.445681 6.65182795 3 12 C0.27529886 17.17896047 -2.92083277 19.51434682 -8.125 21.875 C-8.75792969 22.18179688 -9.39085938 22.48859375 -10.04296875 22.8046875 C-14.6590053 25 -14.6590053 25 -17 25 C-16.505 20.545 -16.505 20.545 -16 16 C-15.01 15.67 -14.02 15.34 -13 15 C-13 14.01 -13 13.02 -13 12 C-11.35 11.67 -9.7 11.34 -8 11 C-8 10.34 -8 9.68 -8 9 C-6.29059971 7.39771617 -4.46698472 5.98705258 -2.62890625 4.53515625 C-0.73441742 2.99243114 -0.73441742 2.99243114 0 0 Z " fill="#110B0A" transform="translate(100,62)"/>
<path d="M0 0 C2.06183633 -0.08150744 4.12461349 -0.1394194 6.1875 -0.1875 C7.33605469 -0.22230469 8.48460938 -0.25710937 9.66796875 -0.29296875 C13.33172004 0.02916648 15.10451156 0.77667852 18 3 C21 8.06896552 21 8.06896552 21 11 C21.66 11 22.32 11 23 11 C22.67 12.98 22.34 14.96 22 17 C22.66 17 23.32 17 24 17 C24.05437607 18.58294782 24.09296271 20.16644256 24.125 21.75 C24.14820312 22.63171875 24.17140625 23.5134375 24.1953125 24.421875 C23.99139502 27.1135858 23.36551721 28.69904974 22 31 C21.91363281 30.29875 21.82726562 29.5975 21.73828125 28.875 C20.35822963 19.55648628 17.64695686 13.68059652 10 8 C10 7.34 10 6.68 10 6 C6.04 5.67 2.08 5.34 -2 5 C-1.34 3.35 -0.68 1.7 0 0 Z " fill="#060302" transform="translate(89,2)"/>
<path d="M0 0 C0.33 0 0.66 0 1 0 C1.98142381 4.24733832 2.30920379 8.47324533 2.5625 12.8125 C2.60568359 13.50537109 2.64886719 14.19824219 2.69335938 14.91210938 C2.79861453 16.60788686 2.89972863 18.30392052 3 20 C3.33 20 3.66 20 4 20 C4.99 16.535 4.99 16.535 6 13 C6.33 13 6.66 13 7 13 C7.84800767 20.692641 8.12152487 28.26291674 8 36 C7.34 34.68 6.68 33.36 6 32 C2.42988974 35.732388 1.89086558 40.0949989 1 45 C-1.96909598 41.72698081 -2.34354794 39.61934238 -2.1875 35.25 C-2.16042969 34.26515625 -2.13335937 33.2803125 -2.10546875 32.265625 C-2.07066406 31.51796875 -2.03585938 30.7703125 -2 30 C-1.34 30 -0.68 30 0 30 C-0.16242188 28.90558594 -0.32484375 27.81117187 -0.4921875 26.68359375 C-1.14198702 21.47486506 -1.14679832 16.30499656 -1.125 11.0625 C-1.12886719 10.10537109 -1.13273437 9.14824219 -1.13671875 8.16210938 C-1.13542969 7.25396484 -1.13414063 6.34582031 -1.1328125 5.41015625 C-1.13168457 4.58652588 -1.13055664 3.76289551 -1.12939453 2.91430664 C-1 1 -1 1 0 0 Z " fill="#EE9B0B" transform="translate(69,97)"/>
<path d="M0 0 C1.65 0 3.3 0 5 0 C5.65864363 3.35843041 6.1360492 6.57260662 6 10 C3.6875 13.125 3.6875 13.125 1 15 C0.34 15 -0.32 15 -1 15 C-1 15.66 -1 16.32 -1 17 C-2.65 17.33 -4.3 17.66 -6 18 C-6.33 18.99 -6.66 19.98 -7 21 C-7.66 20.67 -8.32 20.34 -9 20 C-8.67 18.02 -8.34 16.04 -8 14 C-7.34 14 -6.68 14 -6 14 C-6.68732957 11.25068173 -7.35560222 9.46581179 -9.69140625 7.77734375 C-11.43116325 6.79675344 -13.2137611 5.89311945 -15 5 C-15 4.34 -15 3.68 -15 3 C-10.05 2.67 -5.1 2.34 0 2 C0 1.34 0 0.68 0 0 Z " fill="#7E533F" transform="translate(93,56)"/>
<path d="M0 0 C0.33 0 0.66 0 1 0 C1.62625107 10.69265717 -0.11377693 19.62486383 -7 28 C-8.32 27.34 -9.64 26.68 -11 26 C-11 25.01 -11 24.02 -11 23 C-13.475 22.01 -13.475 22.01 -16 21 C-16 17.7 -16 14.4 -16 11 C-8.25 10.875 -8.25 10.875 -6 12 C-6 12.66 -6 13.32 -6 14 C-5.01 13.67 -4.02 13.34 -3 13 C-1.96452953 9.97717357 -1.96452953 9.97717357 -1.3125 6.4375 C-1.06113281 5.23996094 -0.80976562 4.04242188 -0.55078125 2.80859375 C-0.36902344 1.88175781 -0.18726563 0.95492187 0 0 Z " fill="#E89105" transform="translate(62,96)"/>
<path d="M0 0 C0.66 0 1.32 0 2 0 C2.042721 1.66611905 2.04063832 3.33382885 2 5 C1.67 5.33 1.34 5.66 1 6 C1.74636719 6.09152344 2.49273437 6.18304688 3.26171875 6.27734375 C7.95455632 7.51582442 10.53901957 10.9470294 13 15 C13.56613173 17.93494607 13.37634305 19.98925564 13 23 C7.35185845 22.610473 3.0802034 22.27923771 -1 18 C-2.48911127 11.85851741 -2.74550104 5.81400219 0 0 Z " fill="#1B1516" transform="translate(67,63)"/>
<path d="M0 0 C0.33 0.99 0.66 1.98 1 3 C2.65 3 4.3 3 6 3 C7.19875732 8.44889691 7.01092008 11.26855416 4 16 C2.19892227 18.48720258 1.25325015 18.93093178 -1.75 19.75 C-5.33089512 20.02545347 -8.47370317 19.63473343 -12 19 C-11.34 18.67 -10.68 18.34 -10 18 C-9.855625 17.360625 -9.71125 16.72125 -9.5625 16.0625 C-9 14 -9 14 -6 12 C-5.21011855 10.04614933 -5.21011855 10.04614933 -4.8125 7.875 C-4.544375 6.59625 -4.27625 5.3175 -4 4 C-3.34 4.33 -2.68 4.66 -2 5 C-1.34 3.35 -0.68 1.7 0 0 Z " fill="#C58F75" transform="translate(117,124)"/>
<path d="M0 0 C0.66 0 1.32 0 2 0 C2.33 0.66 2.66 1.32 3 2 C3.99 2.33 4.98 2.66 6 3 C6.18175781 4.24716797 6.18175781 4.24716797 6.3671875 5.51953125 C6.53476563 6.60621094 6.70234375 7.69289063 6.875 8.8125 C7.03742188 9.89144531 7.19984375 10.97039063 7.3671875 12.08203125 C7.85132338 15.17321793 7.85132338 15.17321793 10 18 C11.66072849 18.68132451 13.327767 19.34742127 15 20 C16.8125 21.625 16.8125 21.625 18 23 C17.34 25.31 16.68 27.62 16 30 C12.02301303 30 9.4256203 29.14373026 5.953125 27.22265625 C2.65153158 23.46544294 3.08362588 19.06160967 3.16162109 14.23266602 C3.2341575 9.49309498 2.78144155 7.01925586 0 3 C0 2.01 0 1.02 0 0 Z " fill="#BD8868" transform="translate(66,44)"/>
<path d="M0 0 C0.33 0 0.66 0 1 0 C1.8320582 5.72040011 2.12036664 11.22240116 2 17 C2.99 17 3.98 17 5 17 C5 13.04 5 9.08 5 5 C5.66 5 6.32 5 7 5 C7 5.66 7 6.32 7 7 C8.45833358 8.62514468 8.45833358 8.62514468 10 10 C10.99 9.67 11.98 9.34 13 9 C13 9.66 13 10.32 13 11 C13.66 11 14.32 11 15 11 C15.04254356 12.99954746 15.04080783 15.00041636 15 17 C13.45049732 18.54950268 11.90009406 18.21655193 9.74609375 18.31640625 C8.89208984 18.35830078 8.03808594 18.40019531 7.15820312 18.44335938 C5.81145508 18.50233398 5.81145508 18.50233398 4.4375 18.5625 C3.53580078 18.60568359 2.63410156 18.64886719 1.70507812 18.69335938 C-0.52978485 18.79978142 -2.76476308 18.90179988 -5 19 C-4.91245449 17.24908981 -4.80426627 15.49920449 -4.6875 13.75 C-4.62949219 12.77546875 -4.57148437 11.8009375 -4.51171875 10.796875 C-3.94775561 7.71445052 -2.98946506 6.36248976 -1 4 C-0.29485154 1.85266073 -0.29485154 1.85266073 0 0 Z " fill="#A35F0C" transform="translate(75,125)"/>
<path d="M0 0 C0.98726527 2.66561622 1.0275526 3.90126985 0.25 6.6875 C-1 9 -1 9 -4 10 C-4 10.66 -4 11.32 -4 12 C-3.01 12 -2.02 12 -1 12 C-1 12.66 -1 13.32 -1 14 C-1.99 14.495 -1.99 14.495 -3 15 C-1.13433512 18.62793998 -1.13433512 18.62793998 2 21 C1.75 22.875 1.75 22.875 1 25 C-2.11129938 27.03648687 -4.58403732 27.2214727 -8.25 27.125 C-9.14203125 27.10695313 -10.0340625 27.08890625 -10.953125 27.0703125 C-11.62859375 27.04710938 -12.3040625 27.02390625 -13 27 C-13.33 26.34 -13.66 25.68 -14 25 C-11.69 25 -9.38 25 -7 25 C-7.24126997 19.26133714 -7.24126997 19.26133714 -10.0625 14.5 C-10.701875 14.005 -11.34125 13.51 -12 13 C-10.35 12.67 -8.7 12.34 -7 12 C-7.33 11.01 -7.66 10.02 -8 9 C-10.96175123 9.61277612 -12.38058783 10.25372522 -15 12 C-14.49396008 9.83125748 -14.00016187 8.00032373 -13 6 C-9.9375 5.375 -9.9375 5.375 -7 5 C-7 5.99 -7 6.98 -7 8 C-5.35 8 -3.7 8 -2 8 C-1.855625 7.236875 -1.71125 6.47375 -1.5625 5.6875 C-1 3 -1 3 0 0 Z " fill="#BD836B" transform="translate(88,30)"/>
<path d="M0 0 C5.60090074 1.20593557 10.75957507 3.74605379 16 6 C17.670625 6.680625 17.670625 6.680625 19.375 7.375 C23.87496654 10.16069357 27.3202759 13.9608277 29 19 C27.6696875 18.690625 27.6696875 18.690625 26.3125 18.375 C22.7747289 17.97449761 21.13367033 18.43316484 18 20 C18.66 18.35 19.32 16.7 20 15 C20.99 15 21.98 15 23 15 C22.01 13.68 21.02 12.36 20 11 C16.04 12.98 16.04 12.98 12 15 C12.33 14.05125 12.66 13.1025 13 12.125 C14.10159191 9.22937548 14.10159191 9.22937548 14 7 C10.39007621 7.65585189 10.39007621 7.65585189 7 9 C6.67 8.34 6.34 7.68 6 7 C3.36 7.66 0.72 8.32 -2 9 C-1.125 2.25 -1.125 2.25 0 0 Z " fill="#CB8425" transform="translate(114,76)"/>
<path d="M0 0 C8.39508573 0.14588617 13.54028619 2.95519093 19.875 8.1875 C16.875 9.1875 16.875 9.1875 13.875 8.1875 C13.875 8.8475 13.875 9.5075 13.875 10.1875 C7.56623595 10.74827903 1.34275225 9.48896286 -4.125 6.1875 C-5.0078125 3.60546875 -5.0078125 3.60546875 -5.125 1.1875 C-3.58263775 -0.35486225 -2.14043321 0.01813926 0 0 Z " fill="#191313" transform="translate(35.125,149.8125)"/>
<path d="M0 0 C0.33 0 0.66 0 1 0 C0.69713568 6.29957778 -0.41755374 12.2729854 -1.9375 18.375 C-2.10733398 19.06464844 -2.27716797 19.75429687 -2.45214844 20.46484375 C-3.32177247 23.85057998 -4.26006747 26.95706867 -6 30 C-6.66 30 -7.32 30 -8 30 C-7.54240047 23.4491015 -6.7899856 17.3246158 -5 11 C-8.0743722 12.11795353 -10.82715412 13.44985661 -13.625 15.125 C-17 17 -17 17 -20 17 C-20.33 17.99 -20.66 18.98 -21 20 C-21 18.02 -21 16.04 -21 14 C-20.03578125 13.61328125 -19.0715625 13.2265625 -18.078125 12.828125 C-16.8018675 12.3026072 -15.52583769 11.77653619 -14.25 11.25 C-13.61578125 10.99734375 -12.9815625 10.7446875 -12.328125 10.484375 C-7.35638702 8.41281751 -4.50114741 6.00152988 -1.3125 1.75 C-0.879375 1.1725 -0.44625 0.595 0 0 Z " fill="#D58404" transform="translate(103,73)"/>
<path d="M0 0 C0.33 0 0.66 0 1 0 C1.33 7.59 1.66 15.18 2 23 C1.67 22.34 1.34 21.68 1 21 C-1.64 21.99 -4.28 22.98 -7 24 C-7.33 23.01 -7.66 22.02 -8 21 C-10.01508358 20.26676204 -10.01508358 20.26676204 -12 20 C-10.576875 19.319375 -10.576875 19.319375 -9.125 18.625 C-6.74805592 17.08895595 -6.07831795 16.23132801 -5.15625 13.5078125 C-4.67457435 11.00734921 -4.28010122 8.53056963 -4 6 C-3.01 6.33 -2.02 6.66 -1 7 C-0.67 4.69 -0.34 2.38 0 0 Z " fill="#CA8116" transform="translate(145,106)"/>
<path d="M0 0 C0.66 0 1.32 0 2 0 C2.6875 3.25 2.6875 3.25 3 7 C2.01058509 8.34120688 1.00947556 9.67382623 0 11 C-0.77832644 13.57258666 -0.77832644 13.57258666 -1.1875 16.25 C-1.42533203 17.58804688 -1.42533203 17.58804688 -1.66796875 18.953125 C-1.83232422 19.96632813 -1.83232422 19.96632813 -2 21 C-2.66 21 -3.32 21 -4 21 C-5.125 15.375 -5.125 15.375 -4 12 C-5.65 12 -7.3 12 -9 12 C-9 12.66 -9 13.32 -9 14 C-11.9615696 15.4807848 -14.83506295 15.35314037 -18.125 15.5625 C-19.40632813 15.64628906 -20.68765625 15.73007812 -22.0078125 15.81640625 C-22.99523437 15.87699219 -23.98265625 15.93757813 -25 16 C-25.33 15.34 -25.66 14.68 -26 14 C-25.154375 14.00902344 -24.30875 14.01804687 -23.4375 14.02734375 C-15.98789173 13.83263808 -11.70806541 13.04235994 -6.390625 7.69140625 C-4.92652802 6.0385448 -4.92652802 6.0385448 -4 4 C-3.34 4 -2.68 4 -2 4 C-1.34 2.68 -0.68 1.36 0 0 Z " fill="#84553C" transform="translate(102,44)"/>
<path d="M0 0 C0.99 0 1.98 0 3 0 C2.42415568 2.38564077 1.77772405 4.66682784 1 7 C3.7839183 5.60804085 3.97898997 3.84424221 5 1 C6.65 1 8.3 1 10 1 C11.0326802 3.78823655 11.04509293 4.8677274 10.0625 7.75 C9.711875 8.4925 9.36125 9.235 9 10 C8.34 10 7.68 10 7 10 C7.33 12.31 7.66 14.62 8 17 C6.68 17.33 5.36 17.66 4 18 C3.67 17.01 3.34 16.02 3 15 C2.34 15 1.68 15 1 15 C0.63355422 13.44033408 0.28239138 11.87707349 -0.0625 10.3125 C-0.25972656 9.44238281 -0.45695312 8.57226562 -0.66015625 7.67578125 C-1.02032279 4.83998724 -0.70909969 2.75210018 0 0 Z " fill="#DAA488" transform="translate(65,29)"/>
<path d="M0 0 C0.66 0 1.32 0 2 0 C5 3.46153846 5 3.46153846 5 6 C5.61875 6.2475 6.2375 6.495 6.875 6.75 C9.35068687 8.20628639 9.95125002 9.37812506 11 12 C10.21625 11.835 9.4325 11.67 8.625 11.5 C6.11791961 10.9376293 6.11791961 10.9376293 4 11 C4 11.66 4 12.32 4 13 C4.99 13.33 5.98 13.66 7 14 C6.67 14.99 6.34 15.98 6 17 C8.475 17.99 8.475 17.99 11 19 C10.67 19.99 10.34 20.98 10 22 C8.02 22.33 6.04 22.66 4 23 C3.85304688 21.86111328 3.85304688 21.86111328 3.703125 20.69921875 C3.55359375 19.70535156 3.4040625 18.71148437 3.25 17.6875 C3.11078125 16.70136719 2.9715625 15.71523437 2.828125 14.69921875 C1.84176602 11.4842468 0.68883825 10.86360537 -2 9 C-2 8.01 -2 7.02 -2 6 C-1.34 5.67 -0.68 5.34 0 5 C-0.2784375 4.0409375 -0.2784375 4.0409375 -0.5625 3.0625 C-0.7790625 2.0415625 -0.7790625 2.0415625 -1 1 C-0.67 0.67 -0.34 0.34 0 0 Z " fill="#130F11" transform="translate(62,152)"/>
<path d="M0 0 C1.32 0.66 2.64 1.32 4 2 C4.125 9.75 4.125 9.75 3 12 C3.66 12.33 4.32 12.66 5 13 C4.68289062 13.71285156 4.36578125 14.42570312 4.0390625 15.16015625 C2.98937839 18.02902973 2.60750231 20.40205321 2.375 23.4375 C2.30152344 24.39140625 2.22804688 25.3453125 2.15234375 26.328125 C1.98719899 29.22450995 1.92161052 32.09958929 2 35 C1.01 35 0.02 35 -1 35 C-0.67 31.04 -0.34 27.08 0 23 C-1.32 22.67 -2.64 22.34 -4 22 C-3.01 22 -2.02 22 -1 22 C-1.144375 20.741875 -1.28875 19.48375 -1.4375 18.1875 C-1.51871094 17.47980469 -1.59992188 16.77210937 -1.68359375 16.04296875 C-1.97170735 13.80603607 -1.97170735 13.80603607 -3 11 C-4.31647119 10.30062468 -5.65022151 9.63270867 -7 9 C-7.33 8.34 -7.66 7.68 -8 7 C-2.25 8.875 -2.25 8.875 0 10 C1.19351312 6.65670531 1.19351312 6.65670531 2 3 C1.34 2.01 0.68 1.02 0 0 Z " fill="#9C6E56" transform="translate(81,64)"/>
<path d="M0 0 C0.33 0.66 0.66 1.32 1 2 C2.32 2 3.64 2 5 2 C4 5 4 5 3 6 C3.99 6.33 4.98 6.66 6 7 C5 10 5 10 3.296875 11.1484375 C-0.98473449 12.73583694 -5.47243614 12.67660258 -10 13 C-8.68 9.7 -7.36 6.4 -6 3 C-5.01 3 -4.02 3 -3 3 C-1.31201173 1.56249809 -1.31201173 1.56249809 0 0 Z " fill="#EC9D19" transform="translate(130,128)"/>
<path d="M0 0 C4.26826873 4.26826873 4.56268919 5.31495945 5 11 C5.99 11 6.98 11 8 11 C8 11.66 8 12.32 8 13 C9.32 12.67 10.64 12.34 12 12 C11.67 14.31 11.34 16.62 11 19 C10.34 19 9.68 19 9 19 C9 18.34 9 17.68 9 17 C7.02 17.99 7.02 17.99 5 19 C5 18.01 5 17.02 5 16 C4.01 15.67 3.02 15.34 2 15 C2.33 14.34 2.66 13.68 3 13 C2.34 13 1.68 13 1 13 C1 16.96 1 20.92 1 25 C0.67 25 0.34 25 0 25 C0 16.75 0 8.5 0 0 Z " fill="#EC990C" transform="translate(79,117)"/>
<path d="M0 0 C0.33 0 0.66 0 1 0 C1.91354216 5.96647865 2.01310599 11.51515218 1.66015625 17.53125 C1.59144569 18.84603333 1.59144569 18.84603333 1.52134705 20.18737793 C1.37501106 22.95865345 1.21891954 25.72927723 1.0625 28.5 C0.9609407 30.39059031 0.86002293 32.2812152 0.75976562 34.171875 C0.51392468 38.7816829 0.2593394 43.3909326 0 48 C-0.66 48 -1.32 48 -2 48 C-2.41277905 13.09794343 -2.41277905 13.09794343 0 0 Z " fill="#E0C9AF" transform="translate(79,94)"/>
<path d="M0 0 C0.33 0 0.66 0 1 0 C1 3.3 1 6.6 1 10 C1.33 10 1.66 10 2 10 C0.68700787 34.31299213 0.68700787 34.31299213 -4 39 C-3.85522064 37.06242096 -3.70910502 35.12494176 -3.5625 33.1875 C-3.47484375 32.00671875 -3.3871875 30.8259375 -3.296875 29.609375 C-2.95942589 25.50670419 -2.4980924 21.42447527 -1.98828125 17.33984375 C-1.81779764 14.9686498 -1.81779764 14.9686498 -3.0625 13.015625 C-4.37821702 10.18683341 -3.6622185 8.71947983 -2.6875 5.8125 C-2.40261719 4.93207031 -2.11773437 4.05164063 -1.82421875 3.14453125 C-1 1 -1 1 0 0 Z " fill="#EEA00F" transform="translate(95,90)"/>
<path d="M0 0 C2.60953236 3.38652795 3.86221093 6.70478276 4.3125 10.9375 C4 13 4 13 3 14 C1.00041636 14.04080783 -1.00045254 14.04254356 -3 14 C-2.34 13.34 -1.68 12.68 -1 12 C-1.66 11.34 -2.32 10.68 -3 10 C-2.625 8.0625 -2.625 8.0625 -2 6 C-2 5.01 -2 4.02 -2 3 C-2.66 3 -3.32 3 -4 3 C-4.33 2.34 -4.66 1.68 -5 1 C-8.31544299 -0.10514766 -11.20410111 -0.32107631 -14.6875 -0.5625 C-15.86699219 -0.64628906 -17.04648438 -0.73007813 -18.26171875 -0.81640625 C-19.16535156 -0.87699219 -20.06898437 -0.93757812 -21 -1 C-21 -1.33 -21 -1.66 -21 -2 C-14.01789018 -3.74552745 -6.20665924 -4.14692719 0 0 Z " fill="#91624B" transform="translate(101,11)"/>
<path d="M0 0 C2.1875 0.3125 2.1875 0.3125 4 1 C4 2.32 4 3.64 4 5 C4.99 5 5.98 5 7 5 C7.02698189 6.62490954 7.04638757 8.24994633 7.0625 9.875 C7.07410156 10.77992187 7.08570313 11.68484375 7.09765625 12.6171875 C7 15 7 15 6 17 C3 16 3 16 1.39453125 13.05859375 C0.87246094 11.86363281 0.35039063 10.66867188 -0.1875 9.4375 C-0.98220703 7.64119141 -0.98220703 7.64119141 -1.79296875 5.80859375 C-2.19128906 4.88175781 -2.58960938 3.95492187 -3 3 C-1.63671875 1.48046875 -1.63671875 1.48046875 0 0 Z " fill="#DFD2CC" transform="translate(38,106)"/>
<path d="M0 0 C1.65 0 3.3 0 5 0 C5 0.66 5 1.32 5 2 C4.34 2 3.68 2 3 2 C2.855625 2.804375 2.71125 3.60875 2.5625 4.4375 C2 7 2 7 1 8 C-5.05044668 8.59251079 -9.73950997 8.32241475 -15 5 C-15 4.34 -15 3.68 -15 3 C-10.05 2.67 -5.1 2.34 0 2 C0 1.34 0 0.68 0 0 Z " fill="#77462B" transform="translate(93,56)"/>
<path d="M0 0 C0.66 3.63 1.32 7.26 2 11 C0.68 11 -0.64 11 -2 11 C-3.34164079 11.2981424 -4.67851173 11.62243192 -6 12 C-5.484375 11.05125 -4.96875 10.1025 -4.4375 9.125 C-3.963125 8.09375 -3.48875 7.0625 -3 6 C-3.33 5.34 -3.66 4.68 -4 4 C-4.928125 4.495 -4.928125 4.495 -5.875 5 C-8 6 -8 6 -10 6 C-11.67745682 6.63903117 -13.34561387 7.30341637 -15 8 C-14.5 5.6875 -14.5 5.6875 -13 3 C-8.63615541 0.48956356 -5.0447975 0 0 0 Z " fill="#CABCB3" transform="translate(143,95)"/>
<path d="M0 0 C-1.2065625 0.86625 -1.2065625 0.86625 -2.4375 1.75 C-5.08349898 4.07331618 -5.45175007 4.71050045 -6 8 C-6.66 8.66 -7.32 9.32 -8 10 C-11.625 9.625 -11.625 9.625 -15 9 C-15.33665041 5.97014627 -15.20618506 4.36327844 -13.6875 1.6875 C-9.40525166 -1.00135361 -4.92480563 -0.30567759 0 0 Z " fill="#EEA42A" transform="translate(67,144)"/>
<path d="M0 0 C0.11214844 0.55429688 0.22429688 1.10859375 0.33984375 1.6796875 C1.1071584 4.37663958 2.26198966 6.64254436 3.5625 9.125 C6 13.77903683 6 13.77903683 6 16 C2.6875 16.25 2.6875 16.25 -1 16 C-3 14.25 -3 14.25 -4 12 C-3.625 9.9375 -3.625 9.9375 -3 8 C-3.33 7.01 -3.66 6.02 -4 5 C-3.34 5 -2.68 5 -2 5 C-1.34 3.35 -0.68 1.7 0 0 Z " fill="#EDE3DF" transform="translate(34,113)"/>
<path d="M0 0 C0.66 0 1.32 0 2 0 C2 0.66 2 1.32 2 2 C3.45833358 3.62514468 3.45833358 3.62514468 5 5 C5.99 4.67 6.98 4.34 8 4 C8 4.66 8 5.32 8 6 C8.66 6 9.32 6 10 6 C9.125 10.875 9.125 10.875 8 12 C5.32941149 12.14115161 2.67567762 12.04247107 0 12 C0 8.04 0 4.08 0 0 Z " fill="#D17C00" transform="translate(80,130)"/>
<path d="M0 0 C0.66 0.33 1.32 0.66 2 1 C2 2.65 2 4.3 2 6 C2.99 6.33 3.98 6.66 5 7 C4.67 7.99 4.34 8.98 4 10 C1.36 10.33 -1.28 10.66 -4 11 C-4 10.34 -4 9.68 -4 9 C-5.65 8.67 -7.3 8.34 -9 8 C-7.68 7.34 -6.36 6.68 -5 6 C-5 4.68 -5 3.36 -5 2 C-3.35 2 -1.7 2 0 2 C0 1.34 0 0.68 0 0 Z " fill="#8F5F4F" transform="translate(92,38)"/>
<path d="M0 0 C2 2 2 2 2.125 4.625 C2.08375 5.40875 2.0425 6.1925 2 7 C2.99 6.34 3.98 5.68 5 5 C5 6.32 5 7.64 5 9 C6.32 8.67 7.64 8.34 9 8 C7.8125 10.5 7.8125 10.5 6 13 C3.375 13.375 3.375 13.375 1 13 C0.67 12.67 0.34 12.34 0 12 C-0.66 12.66 -1.32 13.32 -2 14 C-3.74104353 12.25895647 -3.21311272 9.92635979 -3.25 7.5625 C-3.27578125 6.57378906 -3.3015625 5.58507812 -3.328125 4.56640625 C-3.21984375 3.71949219 -3.1115625 2.87257813 -3 2 C-2.01 1.34 -1.02 0.68 0 0 Z " fill="#DACBC6" transform="translate(117,114)"/>
<path d="M0 0 C0.33 0.66 0.66 1.32 1 2 C3.31 1.34 5.62 0.68 8 0 C6.60127827 3.30606954 4.56766689 5.65405253 2.23046875 8.34765625 C0.92953107 10.0946297 0.16969178 11.72753044 -0.625 13.75 C-2 17 -2 17 -5 19 C-4.39816529 13.34275371 -2.90692814 8.34768978 -1 3 C-0.67 2.01 -0.34 1.02 0 0 Z " fill="#DF8F0A" transform="translate(113,82)"/>
<path d="M0 0 C0.33 0 0.66 0 1 0 C1.0825 0.94875 1.165 1.8975 1.25 2.875 C1.4975 3.90625 1.745 4.9375 2 6 C3.98562946 7.22236202 3.98562946 7.22236202 6 8 C5.87431641 9.2684375 5.87431641 9.2684375 5.74609375 10.5625 C5.17484813 16.92574237 4.88849764 22.70148662 6 29 C5.34 29 4.68 29 4 29 C3.90203125 28.08476562 3.8040625 27.16953125 3.703125 26.2265625 C3.55359375 25.03804687 3.4040625 23.84953125 3.25 22.625 C3.11078125 21.44164062 2.9715625 20.25828125 2.828125 19.0390625 C2.55484375 18.03617188 2.2815625 17.03328125 2 16 C0.68 15.34 -0.64 14.68 -2 14 C-1.34 9.38 -0.68 4.76 0 0 Z " fill="#CAB3A7" transform="translate(45,111)"/>
<path d="M0 0 C2 0 4 0 6 0 C6 0.66 6 1.32 6 2 C6.99 1.67 7.98 1.34 9 1 C9 4 9 7 9 10 C5.7 9.67 2.4 9.34 -1 9 C-0.67 6.03 -0.34 3.06 0 0 Z " fill="#8A5A1F" transform="translate(47,98)"/>
<path d="M0 0 C0.99 0.33 1.98 0.66 3 1 C0.61880558 3.01485681 -1.00717085 4.00190247 -4.0625 4.8125 C-7.25806857 5.75991446 -7.25806857 5.75991446 -8.75 8.9375 C-9.1625 9.948125 -9.575 10.95875 -10 12 C-10.99 13.485 -10.99 13.485 -12 15 C-13.32 14.67 -14.64 14.34 -16 14 C-13.6560756 8.72289646 -11.33034194 4.84919283 -7 1 C-6.01 1.33 -5.02 1.66 -4 2 C-3.34 1.67 -2.68 1.34 -2 1 C-1.34 0.67 -0.68 0.34 0 0 Z " fill="#EDA326" transform="translate(137,93)"/>
<path d="M0 0 C0.33 0 0.66 0 1 0 C0.98839844 0.61488281 0.97679687 1.22976562 0.96484375 1.86328125 C0.95582031 2.67152344 0.94679688 3.47976562 0.9375 4.3125 C0.92589844 5.11300781 0.91429687 5.91351563 0.90234375 6.73828125 C0.90342145 9.16861334 0.90342145 9.16861334 2 12 C1.34 12 0.68 12 0 12 C0.020625 13.093125 0.04125 14.18625 0.0625 15.3125 C0 19 0 19 -1 22 C-1.99 22 -2.98 22 -4 22 C-4.94350133 17.18814322 -5.0964339 14.4258049 -3 10 C-2.835 9.175 -2.67 8.35 -2.5 7.5 C-1.96542766 4.82713832 -1.07161584 2.50043696 0 0 Z " fill="#F6A70C" transform="translate(45,80)"/>
<path d="M0 0 C0.33 0 0.66 0 1 0 C1.054348 2.0622048 1.09294961 4.12482816 1.125 6.1875 C1.14820312 7.33605469 1.17140625 8.48460937 1.1953125 9.66796875 C1.00484152 12.91740372 0.39360127 15.08660521 -1 18 C-1.33 18 -1.66 18 -2 18 C-2 16.35 -2 14.7 -2 13 C-3.65 14.32 -5.3 15.64 -7 17 C-6.125 12.125 -6.125 12.125 -5 11 C-4.63239269 8.67182036 -4.29758419 6.3381615 -4 4 C-2.68 3.67 -1.36 3.34 0 3 C0 2.01 0 1.02 0 0 Z " fill="#8F6A5B" transform="translate(106,31)"/>
<path d="M0 0 C0.66 0.33 1.32 0.66 2 1 C2 3.31 2 5.62 2 8 C1.01 8.33 0.02 8.66 -1 9 C-0.67 11.64 -0.34 14.28 0 17 C0.66 17 1.32 17 2 17 C2.33 18.32 2.66 19.64 3 21 C-0.17982198 18.59364823 -2.95062358 16.44864854 -5 13 C-4.9609375 10.52734375 -4.9609375 10.52734375 -4.375 7.9375 C-4.19710938 7.08027344 -4.01921875 6.22304687 -3.8359375 5.33984375 C-2.94552741 2.84752765 -2.00293817 1.68755841 0 0 Z " fill="#F2AD34" transform="translate(26,96)"/>
<path d="M0 0 C0.33 0.66 0.66 1.32 1 2 C0.0625 4.125 0.0625 4.125 -1 6 C-0.34 6 0.32 6 1 6 C2 9 2 9 2 12 C2.66 12.33 3.32 12.66 4 13 C3.67 11.35 3.34 9.7 3 8 C6.28220895 9.64110448 6.74570789 12.69322988 8 16 C8 16.99 8 17.98 8 19 C6.70684939 18.04367001 5.41553147 17.08486149 4.125 16.125 C3.40570313 15.59132813 2.68640625 15.05765625 1.9453125 14.5078125 C0 13 0 13 -2 11 C-2.99 11.66 -3.98 12.32 -5 13 C-3.25740319 3.40546697 -3.25740319 3.40546697 0 0 Z " fill="#EBA429" transform="translate(29,86)"/>
<path d="M0 0 C0.19627391 1.58226965 0.38165538 3.16589271 0.5625 4.75 C0.66691406 5.63171875 0.77132812 6.5134375 0.87890625 7.421875 C0.99456676 9.88432451 0.73638695 11.66538064 0 14 C-1.98 14.33 -3.96 14.66 -6 15 C-5.65084746 4.87457627 -5.65084746 4.87457627 -3 1.3125 C-1 0 -1 0 0 0 Z " fill="#F4A717" transform="translate(53,82)"/>
<path d="M0 0 C0.99 0 1.98 0 3 0 C3.77313045 5.9114744 4.14819277 11.1314592 3 17 C1.68 16.67 0.36 16.34 -1 16 C-1.02692484 13.70839681 -1.04636124 11.41670454 -1.0625 9.125 C-1.07410156 7.84882812 -1.08570312 6.57265625 -1.09765625 5.2578125 C-1 2 -1 2 0 0 Z " fill="#F7AC1C" transform="translate(81,100)"/>
<path d="M0 0 C1.9375 0.3125 1.9375 0.3125 4 1 C4.33 1.99 4.66 2.98 5 4 C5.66 4.33 6.32 4.66 7 5 C6.75 6.875 6.75 6.875 6 9 C2.88870062 11.03648687 0.41596268 11.2214727 -3.25 11.125 C-4.14203125 11.10695313 -5.0340625 11.08890625 -5.953125 11.0703125 C-6.96632813 11.03550781 -6.96632813 11.03550781 -8 11 C-8.33 10.34 -8.66 9.68 -9 9 C-5.7 8.67 -2.4 8.34 1 8 C0.34 6.68 -0.32 5.36 -1 4 C-0.625 1.75 -0.625 1.75 0 0 Z " fill="#B8846E" transform="translate(83,46)"/>
<path d="M0 0 C3.10618756 2.54142619 3.8283365 5.24048843 5 9 C2.87506859 9.02693575 0.75004088 9.04636628 -1.375 9.0625 C-2.55835938 9.07410156 -3.74171875 9.08570313 -4.9609375 9.09765625 C-8 9 -8 9 -10 8 C-10 7.34 -10 6.68 -10 6 C-10.66 5.67 -11.32 5.34 -12 5 C-10.20841511 4.97303635 -8.41671527 4.95362083 -6.625 4.9375 C-5.62726562 4.92589844 -4.62953125 4.91429687 -3.6015625 4.90234375 C-1 5 -1 5 1 6 C0.67 4.02 0.34 2.04 0 0 Z " fill="#D5BAAB" transform="translate(65,135)"/>
<path d="M0 0 C2.62113708 0 4.50935112 0.31292445 7 1 C5.75023244 4.65316671 5.32901247 5.78065836 2 8 C1.35546875 8.29648438 0.7109375 8.59296875 0.046875 8.8984375 C-2.32667399 10.17580547 -3.88404312 11.68727555 -5.75 13.625 C-6.36359375 14.25664063 -6.9771875 14.88828125 -7.609375 15.5390625 C-8.06828125 16.02117187 -8.5271875 16.50328125 -9 17 C-9 12.646639 -6.5575378 11.15019046 -3.62890625 8.1328125 C-1.78446543 5.71778926 -1.43778209 3.96886707 -1 1 C-0.67 0.67 -0.34 0.34 0 0 Z " fill="#D7CECB" transform="translate(134,99)"/>
<path d="M0 0 C-0.165 0.598125 -0.33 1.19625 -0.5 1.8125 C-1.1114124 4.11344336 -1.1114124 4.11344336 -1 7 C-1.51704876 10.36081693 -2.34799352 13.02638833 -4 16 C-4.66 13.69 -5.32 11.38 -6 9 C-6.33 9 -6.66 9 -7 9 C-7.33 6.69 -7.66 4.38 -8 2 C-4.91190305 0.23537317 -3.76687864 0 0 0 Z " fill="#F6AA19" transform="translate(44,79)"/>
<path d="M0 0 C2.1875 0.3125 2.1875 0.3125 4 1 C4 1.99 4 2.98 4 4 C4.66 4.33 5.32 4.66 6 5 C4.576875 5.2165625 4.576875 5.2165625 3.125 5.4375 C0.1065506 5.82935399 0.1065506 5.82935399 -2 7 C-2.46751788 9.35599235 -2.46751788 9.35599235 -2.625 12.0625 C-2.69976562 12.98160156 -2.77453125 13.90070312 -2.8515625 14.84765625 C-2.90054688 15.55792969 -2.94953125 16.26820312 -3 17 C-3.66 16.67 -4.32 16.34 -5 16 C-5 13.69 -5 11.38 -5 9 C-5.66 8.67 -6.32 8.34 -7 8 C-6.01 8 -5.02 8 -4 8 C-4.33 5.69 -4.66 3.38 -5 1 C-4.34 1.66 -3.68 2.32 -3 3 C-2.5875 2.484375 -2.175 1.96875 -1.75 1.4375 C-1.1725 0.963125 -0.595 0.48875 0 0 Z " fill="#C4947A" transform="translate(77,38)"/>
<path d="M0 0 C5.73213046 -0.23396451 10.61262348 -0.08898273 16 2 C16.99 3.485 16.99 3.485 18 5 C13.38 5 8.76 5 4 5 C4 4.34 4 3.68 4 3 C2.35 3 0.7 3 -1 3 C-0.67 2.01 -0.34 1.02 0 0 Z " fill="#090606" transform="translate(31,150)"/>
<path d="M0 0 C2.77042109 2.77042109 2.39796106 4.76533805 2.625 8.625 C2.69976562 9.81351563 2.77453125 11.00203125 2.8515625 12.2265625 C2.92503906 13.59941406 2.92503906 13.59941406 3 15 C4.32 15 5.64 15 7 15 C7 15.66 7 16.32 7 17 C6.01 17 5.02 17 4 17 C4 19.64 4 22.28 4 25 C2.23537317 21.91190305 2 20.76687864 2 17 C1.01 16.67 0.02 16.34 -1 16 C-1.02685095 13.52076199 -1.04676547 11.0418116 -1.0625 8.5625 C-1.07506836 7.50192383 -1.07506836 7.50192383 -1.08789062 6.41992188 C-1.09653588 4.61306441 -1.05220011 2.80612397 -1 1 C-0.67 0.67 -0.34 0.34 0 0 Z " fill="#B26108" transform="translate(46,125)"/>
<path d="M0 0 C1.65 1.32 3.3 2.64 5 4 C4.67 4.66 4.34 5.32 4 6 C3.77049681 8.204364 3.58924067 10.41392173 3.4375 12.625 C3.35371094 13.81351563 3.26992188 15.00203125 3.18359375 16.2265625 C3.12300781 17.14179688 3.06242187 18.05703125 3 19 C2.01 18.67 1.02 18.34 0 18 C-0.19620767 15.93831015 -0.38160753 13.87559002 -0.5625 11.8125 C-0.66691406 10.66394531 -0.77132812 9.51539063 -0.87890625 8.33203125 C-0.98859985 5.31368801 -0.74002389 2.91076064 0 0 Z " fill="#D9C6BE" transform="translate(50,121)"/>
<path d="M0 0 C0.5775 0.37125 1.155 0.7425 1.75 1.125 C4 2.29166667 4 2.29166667 6.25 1.125 C6.8275 0.75375 7.405 0.3825 8 0 C7.67 1.98 7.34 3.96 7 6 C7.66 6 8.32 6 9 6 C9.05437607 7.58294782 9.09296271 9.16644256 9.125 10.75 C9.14820312 11.63171875 9.17140625 12.5134375 9.1953125 13.421875 C8.99139502 16.1135858 8.36551721 17.69904974 7 20 C6.91363281 19.29875 6.82726562 18.5975 6.73828125 17.875 C5.84591904 11.8495084 4.5490855 7.45390721 1.0234375 2.4609375 C0 1 0 1 0 0 Z " fill="#100A08" transform="translate(104,13)"/>
<path d="M0 0 C1.65 0 3.3 0 5 0 C4.67 0.99 4.34 1.98 4 3 C5.5778125 2.9690625 5.5778125 2.9690625 7.1875 2.9375 C10.32704904 2.98896802 12.96883396 3.26517187 16 4 C16 4.66 16 5.32 16 6 C14.7625 5.7525 14.7625 5.7525 13.5 5.5 C6.50128241 4.5001832 1.53756558 4.83696608 -5.01953125 7.34375 C-7 8 -7 8 -10 8 C-9.67 6.68 -9.34 5.36 -9 4 C-5.7 3.67 -2.4 3.34 1 3 C0.67 2.01 0.34 1.02 0 0 Z " fill="#20130F" transform="translate(83,4)"/>
<path d="M0 0 C0.33 0 0.66 0 1 0 C1.125 6.625 1.125 6.625 0 10 C0.66 10 1.32 10 2 10 C2 10.99 2 11.98 2 13 C2.66 13.33 3.32 13.66 4 14 C3.34 14.66 2.68 15.32 2 16 C-0.3828125 15.9765625 -0.3828125 15.9765625 -3.125 15.625 C-4.03507812 15.51414063 -4.94515625 15.40328125 -5.8828125 15.2890625 C-6.58148438 15.19367188 -7.28015625 15.09828125 -8 15 C-7.34 14.67 -6.68 14.34 -6 14 C-5.7834375 13.0409375 -5.7834375 13.0409375 -5.5625 12.0625 C-5 10 -5 10 -2 8 C-1.21011855 6.04614933 -1.21011855 6.04614933 -0.8125 3.875 C-0.544375 2.59625 -0.27625 1.3175 0 0 Z " fill="#B2846F" transform="translate(113,128)"/>
<path d="M0 0 C0.33 0 0.66 0 1 0 C1.84800767 7.692641 2.12152487 15.26291674 2 23 C1.34 21.68 0.68 20.36 0 19 C-0.99 19.99 -1.98 20.98 -3 22 C-2.88482579 19.64499052 -2.75812022 17.29150927 -2.625 14.9375 C-2.55539063 13.62652344 -2.48578125 12.31554687 -2.4140625 10.96484375 C-2.00194564 7.01863043 -1.20243433 3.75882927 0 0 Z " fill="#E4920F" transform="translate(75,110)"/>
<path d="M0 0 C2.35119399 3.52679099 2.21443452 5.02879485 2.125 9.1875 C2.10695313 10.27417969 2.08890625 11.36085937 2.0703125 12.48046875 C2.03550781 13.72763672 2.03550781 13.72763672 2 15 C1.01 15 0.02 15 -1 15 C-3 13 -3 13 -3.3125 9.1875 C-3.23655163 5.39698569 -2.30623182 3.07497576 0 0 Z " fill="#D07A07" transform="translate(44,126)"/>
<path d="M0 0 C0.66 0 1.32 0 2 0 C2.33 2.31 2.66 4.62 3 7 C2.360625 7.28875 1.72125 7.5775 1.0625 7.875 C-1.15206079 8.82823451 -1.15206079 8.82823451 -2 11 C-4.31 11 -6.62 11 -9 11 C-8.21654285 9.82780457 -7.42297164 8.66236332 -6.625 7.5 C-6.18414062 6.8503125 -5.74328125 6.200625 -5.2890625 5.53125 C-4.86367187 5.0259375 -4.43828125 4.520625 -4 4 C-3.34 4 -2.68 4 -2 4 C-1.34 2.68 -0.68 1.36 0 0 Z " fill="#8E5F49" transform="translate(102,44)"/>
<path d="M0 0 C4.455 0.99 4.455 0.99 9 2 C9.125 4.875 9.125 4.875 9 8 C8.34 8.66 7.68 9.32 7 10 C6.01 10 5.02 10 4 10 C3.67 8.68 3.34 7.36 3 6 C2.34 6 1.68 6 1 6 C0.67 4.02 0.34 2.04 0 0 Z " fill="#C78C6E" transform="translate(92,33)"/>
<path d="M0 0 C0.66 0.33 1.32 0.66 2 1 C1.01 2.485 1.01 2.485 0 4 C-0.99 4 -1.98 4 -3 4 C-3.33 5.32 -3.66 6.64 -4 8 C-3.01 7.67 -2.02 7.34 -1 7 C-2.56641751 11.30764815 -4.68336156 15.06171464 -7 19 C-7.66 19 -8.32 19 -9 19 C-8.5851477 12.63893145 -6.40809377 7.38794015 -3 2 C-2.01 1.34 -1.02 0.68 0 0 Z " fill="#E18D0D" transform="translate(128,89)"/>
<path d="M0 0 C0.66 0 1.32 0 2 0 C2.41838867 3.41684083 2.59452863 5.99357572 0.8046875 9.0234375 C-0.72517158 10.90693234 -2.06049683 12.53647582 -4 14 C-5.32 14 -6.64 14 -8 14 C-7.67 12.02 -7.34 10.04 -7 8 C-5.68 8 -4.36 8 -3 8 C-2.814375 6.5459375 -2.814375 6.5459375 -2.625 5.0625 C-2.41875 4.051875 -2.2125 3.04125 -2 2 C-1.34 1.67 -0.68 1.34 0 1 C0 0.67 0 0.34 0 0 Z " fill="#824F3E" transform="translate(113,36)"/>
<path d="M0 0 C0.33 0.99 0.66 1.98 1 3 C5.97906259 3.75427297 5.97906259 3.75427297 11 4 C11 4.66 11 5.32 11 6 C8.69 6 6.38 6 4 6 C3.67 7.32 3.34 8.64 3 10 C2.67 8.35 2.34 6.7 2 5 C1.01 5.495 1.01 5.495 0 6 C0.33 8.97 0.66 11.94 1 15 C-2.54411942 11.45588058 -2.97872054 10.255488 -3.0625 5.3125 C-3.041875 4.219375 -3.02125 3.12625 -3 2 C-2.01 2 -1.02 2 0 2 C0 1.34 0 0.68 0 0 Z " fill="#090607" transform="translate(90,142)"/>
<path d="M0 0 C0.66 0.66 1.32 1.32 2 2 C2.66 1.67 3.32 1.34 4 1 C4 1.99 4 2.98 4 4 C4.99 4 5.98 4 7 4 C4.69 6.31 2.38 8.62 0 11 C-0.33 10.34 -0.66 9.68 -1 9 C-1.66 9 -2.32 9 -3 9 C-2.25 2.25 -2.25 2.25 0 0 Z " fill="#F6AC2D" transform="translate(126,122)"/>
<path d="M0 0 C4 4 4 4 4.25 7.25 C4.1675 8.1575 4.085 9.065 4 10 C3.34 10 2.68 10 2 10 C2 10.66 2 11.32 2 12 C2.66 12 3.32 12 4 12 C4 13.32 4 14.64 4 16 C3.34 15.67 2.68 15.34 2 15 C2.33 14.34 2.66 13.68 3 13 C2.34 13 1.68 13 1 13 C1 16.96 1 20.92 1 25 C0.67 25 0.34 25 0 25 C0 16.75 0 8.5 0 0 Z " fill="#D99026" transform="translate(79,117)"/>
<path d="M0 0 C0.33 0.66 0.66 1.32 1 2 C0.57847656 2.54269531 0.15695313 3.08539063 -0.27734375 3.64453125 C-0.82519531 4.35996094 -1.37304688 5.07539062 -1.9375 5.8125 C-2.48277344 6.52019531 -3.02804688 7.22789063 -3.58984375 7.95703125 C-5.16856248 10.04125052 -5.16856248 10.04125052 -6 13 C-4.68 12.34 -3.36 11.68 -2 11 C-3.24546405 14.73639216 -4.63404953 15.18756513 -8 17 C-8.08114106 15.22992286 -8.13925505 13.45877902 -8.1875 11.6875 C-8.22230469 10.70136719 -8.25710937 9.71523437 -8.29296875 8.69921875 C-8 6 -8 6 -6.73828125 4.14453125 C-5 3 -5 3 -1 3 C-0.67 2.01 -0.34 1.02 0 0 Z " fill="#E4D8D4" transform="translate(126,105)"/>
<path d="M0 0 C2 2 2 2 2 6 C2.99 6 3.98 6 5 6 C4.34 7.32 3.68 8.64 3 10 C1.35 10 -0.3 10 -2 10 C-2 11.65 -2 13.3 -2 15 C-3.65 15.66 -5.3 16.32 -7 17 C-6.835 16.0925 -6.67 15.185 -6.5 14.25 C-5.89862854 10.88912497 -5.89862854 10.88912497 -6 7 C-5.34 7 -4.68 7 -4 7 C-4 7.66 -4 8.32 -4 9 C-2.35 8.67 -0.7 8.34 1 8 C0.67 5.36 0.34 2.72 0 0 Z " fill="#CB977A" transform="translate(91,15)"/>
<path d="M0 0 C0.80566406 0.00257812 1.61132812 0.00515625 2.44140625 0.0078125 C3.64603516 0.00394531 3.64603516 0.00394531 4.875 0 C7.00390625 0.1328125 7.00390625 0.1328125 9.00390625 1.1328125 C8.12890625 5.0078125 8.12890625 5.0078125 7.00390625 6.1328125 C4.67093192 6.17374187 2.336854 6.17522973 0.00390625 6.1328125 C0.33390625 5.1428125 0.66390625 4.1528125 1.00390625 3.1328125 C-0.31609375 2.4728125 -1.63609375 1.8128125 -2.99609375 1.1328125 C-1.99609375 0.1328125 -1.99609375 0.1328125 0 0 Z " fill="#90604A" transform="translate(76.99609375,24.8671875)"/>
<path d="M0 0 C1.32 0 2.64 0 4 0 C3.9278125 0.86882812 3.855625 1.73765625 3.78125 2.6328125 C3.6884375 3.78523438 3.595625 4.93765625 3.5 6.125 C3.4071875 7.26195313 3.314375 8.39890625 3.21875 9.5703125 C3.0174779 12.72597149 2.96157096 15.83921165 3 19 C2.01 19 1.02 19 0 19 C0.33 15.04 0.66 11.08 1 7 C-0.32 6.67 -1.64 6.34 -3 6 C-2.01 6 -1.02 6 0 6 C0 4.02 0 2.04 0 0 Z " fill="#766659" transform="translate(80,80)"/>
<path d="M0 0 C-0.33 2.97 -0.66 5.94 -1 9 C-1.99 9.33 -2.98 9.66 -4 10 C-4 9.34 -4 8.68 -4 8 C-6.31 8.33 -8.62 8.66 -11 9 C-4.25 0 -4.25 0 0 0 Z " fill="#ECA32B" transform="translate(141,111)"/>
<path d="M0 0 C0.66 0.66 1.32 1.32 2 2 C0.783125 1.896875 -0.43375 1.79375 -1.6875 1.6875 C-5.45005227 1.65408479 -5.88803642 1.90669702 -9 4.5 C-9.66 5.325 -10.32 6.15 -11 7 C-9.68 7.66 -8.36 8.32 -7 9 C-8.98 9 -10.96 9 -13 9 C-12.67 10.32 -12.34 11.64 -12 13 C-12.99 13 -13.98 13 -15 13 C-16 10 -16 10 -14.5625 6.8125 C-14.046875 5.884375 -13.53125 4.95625 -13 4 C-12.34 4 -11.68 4 -11 4 C-11 3.34 -11 2.68 -11 2 C-6.93150591 -0.71232939 -4.83523216 -0.30699887 0 0 Z " fill="#C39176" transform="translate(87,11)"/>
<path d="M0 0 C0 2.64 0 5.28 0 8 C-7.75 7.25 -7.75 7.25 -10 5 C-8.68 5 -7.36 5 -6 5 C-5.67 3.68 -5.34 2.36 -5 1 C-1.125 0 -1.125 0 0 0 Z " fill="#261E1A" transform="translate(80,78)"/>
<path d="M0 0 C0.33 0 0.66 0 1 0 C1.125 3.375 1.125 3.375 1 7 C0.34 7.66 -0.32 8.32 -1 9 C-2.03842565 11.31648799 -3.0421975 13.64903024 -4 16 C-5.32 16 -6.64 16 -8 16 C-7.67 15.01 -7.34 14.02 -7 13 C-6.34 12.67 -5.68 12.34 -5 12 C-5 11.34 -5 10.68 -5 10 C-5.66 9.67 -6.32 9.34 -7 9 C-7 7.35 -7 5.7 -7 4 C-6.34 5.32 -5.68 6.64 -5 8 C-2.95163118 7.43637698 -2.95163118 7.43637698 -1 6 C-0.18415432 2.94091587 -0.18415432 2.94091587 0 0 Z " fill="#B37C5F" transform="translate(101,35)"/>
<path d="M0 0 C0.33 0.66 0.66 1.32 1 2 C2.65 1.67 4.3 1.34 6 1 C6.33 2.32 6.66 3.64 7 5 C6.01 4.67 5.02 4.34 4 4 C4 5.98 4 7.96 4 10 C2.68 10.33 1.36 10.66 0 11 C0 7.37 0 3.74 0 0 Z " fill="#6F4232" transform="translate(107,34)"/>
<path d="M0 0 C0.66 3.63 1.32 7.26 2 11 C0.68 11 -0.64 11 -2 11 C-3.34164079 11.2981424 -4.67851173 11.62243192 -6 12 C-5.34 11.0925 -4.68 10.185 -4 9.25 C-1.65060172 6.06824185 -1.65060172 6.06824185 -2 2 C-2.99 2.33 -3.98 2.66 -5 3 C-5.66 2.34 -6.32 1.68 -7 1 C-5 0 -5 0 0 0 Z " fill="#BCB2AF" transform="translate(143,95)"/>
<path d="M0 0 C1.65 0 3.3 0 5 0 C4.67 0.66 4.34 1.32 4 2 C4.66 2 5.32 2 6 2 C6 2.66 6 3.32 6 4 C4.68 4.33 3.36 4.66 2 5 C2 5.66 2 6.32 2 7 C-0.97 7 -3.94 7 -7 7 C-2.25 2.125 -2.25 2.125 0 1 C0 0.67 0 0.34 0 0 Z " fill="#312422" transform="translate(82,0)"/>
<path d="M0 0 C0.33 0 0.66 0 1 0 C1 7.26 1 14.52 1 22 C0.67 22 0.34 22 0 22 C-0.33 19.03 -0.66 16.06 -1 13 C-1.33 13 -1.66 13 -2 13 C-2.05416188 11.39620659 -2.09286638 9.79188594 -2.125 8.1875 C-2.14820312 7.29417969 -2.17140625 6.40085937 -2.1953125 5.48046875 C-2 3 -2 3 0 0 Z " fill="#F2A217" transform="translate(76,99)"/>
<path d="M0 0 C2.40398671 8.68537133 0.41485565 16.5048828 -2 25 C-2.33 25 -2.66 25 -3 25 C-2.48244596 16.55569721 -1.5439119 8.31913693 0 0 Z " fill="#C27508" transform="translate(94,104)"/>
<path d="M0 0 C0.66 0 1.32 0 2 0 C2.226875 1.051875 2.45375 2.10375 2.6875 3.1875 C3.79360531 7.1597906 5.88629885 9.29599637 9 12 C7.32700041 11.34938905 5.66140763 10.67966676 4 10 C3.2575 9.773125 2.515 9.54625 1.75 9.3125 C0 8 0 8 -0.8125 4.4375 C-0.874375 3.303125 -0.93625 2.16875 -1 1 C-0.67 0.67 -0.34 0.34 0 0 Z " fill="#181316" transform="translate(90,147)"/>
<path d="M0 0 C0 0.66 0 1.32 0 2 C0.66 2.33 1.32 2.66 2 3 C-2.75 8.75 -2.75 8.75 -5 11 C-5 7.7 -5 4.4 -5 1 C-2 0 -2 0 0 0 Z " fill="#B88466" transform="translate(55,141)"/>
<path d="M0 0 C0.99 0 1.98 0 3 0 C3.4803318 1.58298026 3.95921612 3.16639978 4.4375 4.75 C4.83775391 6.07257813 4.83775391 6.07257813 5.24609375 7.421875 C5.88302113 9.59996864 6.44961145 11.79844581 7 14 C4.36 12.35 1.72 10.7 -1 9 C0.32 8.67 1.64 8.34 3 8 C2.505 7.236875 2.01 6.47375 1.5 5.6875 C0 3 0 3 0 0 Z " fill="#C67811" transform="translate(45,142)"/>
<path d="M0 0 C0.33 0 0.66 0 1 0 C1.33 6.27 1.66 12.54 2 19 C0.68 18.34 -0.64 17.68 -2 17 C-2.66 17 -3.32 17 -4 17 C-3.79503906 16.443125 -3.59007812 15.88625 -3.37890625 15.3125 C-1.56121505 10.16382446 -0.49429453 5.43723984 0 0 Z " fill="#AE7D3D" transform="translate(145,106)"/>
<path d="M0 0 C1.33895632 1.66215268 2.67130142 3.32963607 4 5 C4.5775 5.721875 5.155 6.44375 5.75 7.1875 C7 9 7 9 7 11 C1.125 10.125 1.125 10.125 0 9 C-0.07179964 7.48071962 -0.08392007 5.95832518 -0.0625 4.4375 C-0.05347656 3.61121094 -0.04445313 2.78492188 -0.03515625 1.93359375 C-0.02355469 1.29550781 -0.01195313 0.65742187 0 0 Z " fill="#CC9879" transform="translate(71,59)"/>
<path d="M0 0 C1.32 0.33 2.64 0.66 4 1 C3.34 2.32 2.68 3.64 2 5 C1.34 5 0.68 5 0 5 C-0.103125 5.639375 -0.20625 6.27875 -0.3125 6.9375 C-0.539375 7.618125 -0.76625 8.29875 -1 9 C-1.99 9.33 -2.98 9.66 -4 10 C-4.41176754 6.39703406 -4.1535853 5.21597933 -2 2.1875 C-1.34 1.465625 -0.68 0.74375 0 0 Z " fill="#B8A099" transform="translate(108,133)"/>
<path d="M0 0 C1.98 0 3.96 0 6 0 C4.68 3.63 3.36 7.26 2 11 C1.34 10.67 0.68 10.34 0 10 C0 6.7 0 3.4 0 0 Z " fill="#F0A21A" transform="translate(46,107)"/>
<path d="M0 0 C7.42857143 -0.14285714 7.42857143 -0.14285714 11 1 C11 2.65 11 4.3 11 6 C8.03 5.505 8.03 5.505 5 5 C5.33 4.01 5.66 3.02 6 2 C3.69 2.33 1.38 2.66 -1 3 C-0.67 2.01 -0.34 1.02 0 0 Z " fill="#AC816B" transform="translate(74,20)"/>
<path d="M0 0 C1.00933594 -0.01836914 1.00933594 -0.01836914 2.0390625 -0.03710938 C5.74361843 -0.04804802 8.47990643 0.14722135 11.625 2.1875 C11.625 2.8475 11.625 3.5075 11.625 4.1875 C9.45625748 3.68146008 7.62532373 3.18766187 5.625 2.1875 C3.64775939 2.09077168 1.6670994 2.05770097 -0.3125 2.0625 C-1.37339844 2.05992188 -2.43429688 2.05734375 -3.52734375 2.0546875 C-6.45073057 2.06180654 -6.45073057 2.06180654 -9.375 3.1875 C-9.375 3.8475 -9.375 4.5075 -9.375 5.1875 C-10.035 5.1875 -10.695 5.1875 -11.375 5.1875 C-8.8176044 -0.47530455 -5.78200238 0.00547538 0 0 Z " fill="#AA7558" transform="translate(85.375,9.8125)"/>
<path d="M0 0 C-0.52414142 3.77381819 -1.02700459 6.49153512 -4 9 C-7.02758055 9.33878788 -9.96679232 9.22892133 -13 9 C-13 8.67 -13 8.34 -13 8 C-10.36 7.67 -7.72 7.34 -5 7 C-5.0928125 5.824375 -5.0928125 5.824375 -5.1875 4.625 C-5.125625 3.75875 -5.06375 2.8925 -5 2 C-2 0 -2 0 0 0 Z " fill="#A86D20" transform="translate(146,130)"/>
<path d="M0 0 C0.99 0.495 0.99 0.495 2 1 C3.48329014 7.80074536 3.1184124 15.07945318 3 22 C2.01 21.67 1.02 21.34 0 21 C0 14.07 0 7.14 0 0 Z " fill="#F3A10D" transform="translate(55,76)"/>
<path d="M0 0 C7.50769231 0.61538462 7.50769231 0.61538462 10 2.5625 C10.33 3.036875 10.66 3.51125 11 4 C8.09399739 5.25664978 6.20395416 6 3 6 C2.814375 5.071875 2.814375 5.071875 2.625 4.125 C2.12802644 1.80879168 2.12802644 1.80879168 0 0 Z " fill="#131012" transform="translate(114,145)"/>
<path d="M0 0 C0.33 0.99 0.66 1.98 1 3 C0.01439389 4.34400833 -0.98758315 5.67607028 -2 7 C-2.71433121 9.64934822 -2.71433121 9.64934822 -3 12 C-3.99 11.34 -4.98 10.68 -6 10 C-6 9.01 -6 8.02 -6 7 C-6.66 6.67 -7.32 6.34 -8 6 C-6.824375 5.87625 -6.824375 5.87625 -5.625 5.75 C-2.86319488 5.27785697 -2.86319488 5.27785697 -1.75 3 C-1.5025 2.34 -1.255 1.68 -1 1 C-0.67 0.67 -0.34 0.34 0 0 Z " fill="#F6AA20" transform="translate(57,112)"/>
<path d="M0 0 C0.33 0 0.66 0 1 0 C0.67 3.3 0.34 6.6 0 10 C-0.33 9.01 -0.66 8.02 -1 7 C-1.391875 7.495 -1.78375 7.99 -2.1875 8.5 C-4.55091715 10.45593143 -6.01435003 10.24207973 -9 10 C-8.2575 9.46375 -7.515 8.9275 -6.75 8.375 C-3.82649095 5.85015128 -2.06298806 3.24183838 0 0 Z " fill="#9B5A06" transform="translate(103,73)"/>
<path d="M0 0 C2.02045442 0.60183749 4.02111039 1.27306096 6 2 C6.33 2.66 6.66 3.32 7 4 C6.67 4.66 6.34 5.32 6 6 C2.9375 6.625 2.9375 6.625 0 7 C0 4.69 0 2.38 0 0 Z " fill="#080608" transform="translate(66,168)"/>
<path d="M0 0 C4.95 0.99 4.95 0.99 10 2 C10 2.99 10 3.98 10 5 C8.35 5.33 6.7 5.66 5 6 C5 5.34 5 4.68 5 4 C2.525 3.01 2.525 3.01 0 2 C0 1.34 0 0.68 0 0 Z " fill="#D6A78E" transform="translate(82,18)"/>
<path d="M0 0 C3.92300495 2.35380297 4.83857315 4.64464931 6 9 C4.35 9 2.7 9 1 9 C0.67 6.03 0.34 3.06 0 0 Z " fill="#F9AC1A" transform="translate(28,102)"/>
<path d="M0 0 C-6.625 4 -6.625 4 -10 4 C-10.33 4.99 -10.66 5.98 -11 7 C-11 5.02 -11 3.04 -11 1 C-9.5437328 0.63743142 -8.08488815 0.28520207 -6.625 -0.0625 C-5.40683594 -0.35833984 -5.40683594 -0.35833984 -4.1640625 -0.66015625 C-2 -1 -2 -1 0 0 Z " fill="#DE8F0C" transform="translate(93,86)"/>
<path d="M0 0 C-0.165 0.598125 -0.33 1.19625 -0.5 1.8125 C-1.1114124 4.11344336 -1.1114124 4.11344336 -1 7 C-1.66 7 -2.32 7 -3 7 C-3.33 7.66 -3.66 8.32 -4 9 C-4 7.02 -4 5.04 -4 3 C-5.32 2.67 -6.64 2.34 -8 2 C-4.91190305 0.23537317 -3.76687864 0 0 0 Z " fill="#E5A029" transform="translate(44,79)"/>
<path d="M0 0 C0.33 0 0.66 0 1 0 C1 1.65 1 3.3 1 5 C2.32 5 3.64 5 5 5 C5 5.66 5 6.32 5 7 C4.01 7 3.02 7 2 7 C2 9.64 2 12.28 2 15 C-0.40493106 11.15211031 -0.64715686 7.44582361 -1 3 C-0.67 2.01 -0.34 1.02 0 0 Z " fill="#6E4431" transform="translate(48,135)"/>
<path d="M0 0 C0.99 0.33 1.98 0.66 3 1 C2.6875 4.375 2.6875 4.375 2 8 C1.01 8.66 0.02 9.32 -1 10 C-1.125 2.25 -1.125 2.25 0 0 Z " fill="#D48E28" transform="translate(141,112)"/>
<path d="M0 0 C0.33 0.66 0.66 1.32 1 2 C0.360625 2.165 -0.27875 2.33 -0.9375 2.5 C-3.45621375 3.96728299 -3.45621375 3.96728299 -3.6875 7.875 C-3.79249519 9.24993698 -3.89673403 10.62493206 -4 12 C-4.30169066 13.34084736 -4.61517681 14.6806062 -5 16 C-6.23184766 13.53630468 -6.16732342 11.8105499 -6.1875 9.0625 C-6.20167969 8.18722656 -6.21585938 7.31195313 -6.23046875 6.41015625 C-6 4 -6 4 -4 1 C-1.875 0.3125 -1.875 0.3125 0 0 Z " fill="#AE7761" transform="translate(69,25)"/>
<path d="M0 0 C-2.31 2.31 -4.62 4.62 -7 7 C-7.99 6.67 -8.98 6.34 -10 6 C-8.45899296 2.91798591 -7.51635481 1.27706844 -4.4375 -0.375 C-2 -1 -2 -1 0 0 Z " fill="#EADCD1" transform="translate(135,115)"/>
<path d="M0 0 C3.00617269 3.00617269 2.59585316 5.82381598 3 10 C2.01 10.33 1.02 10.66 0 11 C-0.19406478 9.35492782 -0.38007935 7.70890406 -0.5625 6.0625 C-0.66691406 5.14597656 -0.77132812 4.22945313 -0.87890625 3.28515625 C-0.91886719 2.53105469 -0.95882812 1.77695313 -1 1 C-0.67 0.67 -0.34 0.34 0 0 Z " fill="#FDB20A" transform="translate(58,87)"/>
<path d="M0 0 C2.96175123 0.61277612 4.38058783 1.25372522 7 3 C4.34771188 4.07525194 1.71631546 5.09456151 -1 6 C-1.33 6.99 -1.66 7.98 -2 9 C-1.125 2.25 -1.125 2.25 0 0 Z " fill="#AF6F1E" transform="translate(114,76)"/>
<path d="M0 0 C1.00109515 3.31070838 1.10356134 6.30084769 1.0625 9.75 C1.05347656 10.73484375 1.04445313 11.7196875 1.03515625 12.734375 C1.02355469 13.48203125 1.01195313 14.2296875 1 15 C-2 11.375 -2 11.375 -2 8 C-2.66 7.67 -3.32 7.34 -4 7 C-3.34 7 -2.68 7 -2 7 C-1.34 4.69 -0.68 2.38 0 0 Z " fill="#44332A" transform="translate(65,65)"/>
<path d="M0 0 C0.66 0 1.32 0 2 0 C2 0.66 2 1.32 2 2 C3.32 2 4.64 2 6 2 C5.67 3.32 5.34 4.64 5 6 C2.69 5.67 0.38 5.34 -2 5 C-2 4.01 -2 3.02 -2 2 C-1.34 2 -0.68 2 0 2 C0 1.34 0 0.68 0 0 Z " fill="#F6AA1D" transform="translate(54,148)"/>
<path d="M0 0 C0.33 0 0.66 0 1 0 C1.33 4.29 1.66 8.58 2 13 C1.67 11.68 1.34 10.36 1 9 C-0.65 9.33 -2.3 9.66 -4 10 C-2.66666667 6.66666667 -1.33333333 3.33333333 0 0 Z " fill="#CB7904" transform="translate(75,125)"/>
<path d="M0 0 C1.65 0 3.3 0 5 0 C4.38722388 2.96175123 3.74627478 4.38058783 2 7 C0.02 6.34 -1.96 5.68 -4 5 C-4 4.67 -4 4.34 -4 4 C-2.35 4 -0.7 4 1 4 C0.67 2.68 0.34 1.36 0 0 Z " fill="#E2CFC0" transform="translate(39,125)"/>
<path d="M0 0 C0.99 0.33 1.98 0.66 3 1 C3 4.3 3 7.6 3 11 C2.34 9.68 1.68 8.36 1 7 C0.01 7.99 -0.98 8.98 -2 10 C-1.46274105 6.62294375 -0.88935377 3.303314 0 0 Z " fill="#D6850D" transform="translate(74,122)"/>
<path d="M0 0 C2 1.75 2 1.75 4 4 C4 5.32 4 6.64 4 8 C4.66 8 5.32 8 6 8 C6.33 9.32 6.66 10.64 7 12 C0.90588235 7.38823529 0.90588235 7.38823529 -1 4 C-0.6875 1.75 -0.6875 1.75 0 0 Z " fill="#F3BC58" transform="translate(22,105)"/>
<path d="M0 0 C0.66 0.33 1.32 0.66 2 1 C1.690625 1.9075 1.38125 2.815 1.0625 3.75 C0.2727737 6.16563338 -0.42949297 8.52780285 -1 11 C-1.99 11 -2.98 11 -4 11 C-3.48964169 6.6109185 -2.47785723 3.66291938 0 0 Z " fill="#DA8103" transform="translate(52,107)"/>
<path d="M0 0 C3.33785639 4.45047519 3.38736291 5.67376 3 11 C2.67 11.99 2.34 12.98 2 14 C1.34 14 0.68 14 0 14 C0 9.38 0 4.76 0 0 Z " fill="#E89306" transform="translate(53,82)"/>
<path d="M0 0 C0 0.66 0 1.32 0 2 C-0.83144531 2.30744141 -0.83144531 2.30744141 -1.6796875 2.62109375 C-2.40414062 2.89050781 -3.12859375 3.15992187 -3.875 3.4375 C-4.95394531 3.83775391 -4.95394531 3.83775391 -6.0546875 4.24609375 C-8.03648845 4.97916854 -8.03648845 4.97916854 -10 6 C-9.75 4.125 -9.75 4.125 -9 2 C-6.04454879 -0.11103658 -3.56144099 -0.19785783 0 0 Z " fill="#EA9813" transform="translate(137,119)"/>
<path d="M0 0 C3.28220895 1.64110448 3.74570789 4.69322988 5 8 C5 8.99 5 9.98 5 11 C2.69 9.35 0.38 7.7 -2 6 C-1.67 5.34 -1.34 4.68 -1 4 C-0.34 4.33 0.32 4.66 1 5 C0.67 3.35 0.34 1.7 0 0 Z " fill="#F0A010" transform="translate(32,94)"/>
<path d="M0 0 C0.33 0 0.66 0 1 0 C0.979375 1.11375 0.95875 2.2275 0.9375 3.375 C0.73619282 6.83215921 0.73619282 6.83215921 2 9 C1.0625 11.125 1.0625 11.125 0 13 C-0.66 13 -1.32 13 -2 13 C-1.85915204 11.20793453 -1.71216299 9.41635083 -1.5625 7.625 C-1.48128906 6.62726563 -1.40007812 5.62953125 -1.31640625 4.6015625 C-1 2 -1 2 0 0 Z " fill="#C07307" transform="translate(97,90)"/>
<path d="M0 0 C0.33 0 0.66 0 1 0 C1.25 7.625 1.25 7.625 -1 11 C-1.66 10.67 -2.32 10.34 -3 10 C-2.25 2.25 -2.25 2.25 0 0 Z " fill="#E99909" transform="translate(50,86)"/>
<path d="M0 0 C2.94586829 4.41880243 3.0985616 6.67767339 3 12 C2.01 12.495 2.01 12.495 1 13 C1 11.68 1 10.36 1 9 C0.34 9 -0.32 9 -1 9 C-0.67 6.03 -0.34 3.06 0 0 Z " fill="#161213" transform="translate(100,62)"/>
<path d="M0 0 C2.97 0.99 5.94 1.98 9 3 C9 3.99 9 4.98 9 6 C4.70042176 5.52226908 2.78280018 4.29813355 0 1 C0 0.67 0 0.34 0 0 Z " fill="#1A1518" transform="translate(64,161)"/>
<path d="M0 0 C-3.49087093 4.0042343 -5.64951939 5.62671065 -11 6 C-7.34769214 1.25199978 -6.01084259 -0.15818007 0 0 Z " fill="#DCCABB" transform="translate(141,110)"/>
<path d="M0 0 C0 3 0 3 -1.3125 4.38671875 C-2.875 5.59114583 -4.4375 6.79557292 -6 8 C-6.33 7.34 -6.66 6.68 -7 6 C-4.82491582 1.30639731 -4.82491582 1.30639731 -1.8125 0.1875 C-0.9153125 0.0946875 -0.9153125 0.0946875 0 0 Z " fill="#E69309" transform="translate(120,82)"/>
<path d="M0 0 C0.33 0.99 0.66 1.98 1 3 C1.66 3 2.32 3 3 3 C3 3.99 3 4.98 3 6 C1.68 6 0.36 6 -1 6 C-1 6.66 -1 7.32 -1 8 C-1.99 8 -2.98 8 -4 8 C-4 7.34 -4 6.68 -4 6 C-4.66 5.67 -5.32 5.34 -6 5 C-4.35 4.67 -2.7 4.34 -1 4 C-0.67 2.68 -0.34 1.36 0 0 Z " fill="#A9725B" transform="translate(88,34)"/>
<path d="M0 0 C0.99 0 1.98 0 3 0 C1.68775452 3.93673644 0.08089673 6.22719294 -3 9 C-3.2519555 5.97653399 -3.20421041 4.3597993 -1.6875 1.6875 C-1.130625 1.130625 -0.57375 0.57375 0 0 Z " fill="#E79512" transform="translate(57,115)"/>
<path d="M0 0 C0.66 0.33 1.32 0.66 2 1 C-0.97 4.96 -0.97 4.96 -4 9 C-4.66 7.68 -5.32 6.36 -6 5 C-5.34 4.67 -4.68 4.34 -4 4 C-3.67 3.01 -3.34 2.02 -3 1 C-2.01 0.67 -1.02 0.34 0 0 Z " fill="#EFA013" transform="translate(75,90)"/>
<path d="M0 0 C2.475 0.495 2.475 0.495 5 1 C5.70074844 4.153368 6 6.72724974 6 10 C5.01 10 4.02 10 3 10 C2.8046875 7.98177083 2.609375 5.96354167 2.4140625 3.9453125 C2.13625251 1.77331755 2.13625251 1.77331755 0 0 Z " fill="#C5907C" transform="translate(78,45)"/>
<path d="M0 0 C0.66 0.66 1.32 1.32 2 2 C1.9765625 4.3828125 1.9765625 4.3828125 1.625 7.125 C1.51414062 8.03507812 1.40328125 8.94515625 1.2890625 9.8828125 C1.19367188 10.58148438 1.09828125 11.28015625 1 12 C0.34 11.67 -0.32 11.34 -1 11 C-1 8.69 -1 6.38 -1 4 C-1.66 3.67 -2.32 3.34 -3 3 C-2.01 3 -1.02 3 0 3 C0 2.01 0 1.02 0 0 Z " fill="#CB9876" transform="translate(73,43)"/>
<path d="M0 0 C0.33 0.66 0.66 1.32 1 2 C1.99 2 2.98 2 4 2 C4 1.34 4 0.68 4 0 C5.65 0 7.3 0 9 0 C8.67 0.99 8.34 1.98 8 3 C5.36 3.33 2.72 3.66 0 4 C0 2.68 0 1.36 0 0 Z " fill="#C99A7F" transform="translate(71,22)"/>
<path d="M0 0 C0.66 0 1.32 0 2 0 C2 0.66 2 1.32 2 2 C2.66 2 3.32 2 4 2 C3.625 4.4375 3.625 4.4375 3 7 C2.01 7.495 2.01 7.495 1 8 C-0.35439668 5.29120665 -0.06501451 2.99066732 0 0 Z " fill="#C17003" transform="translate(86,134)"/>
<path d="M0 0 C0.93423645 3.01031744 1.04449911 3.86650268 0 7 C-0.66 7 -1.32 7 -2 7 C-2 6.34 -2 5.68 -2 5 C-2.66 5 -3.32 5 -4 5 C-4 3.68 -4 2.36 -4 1 C-2.68 0.67 -1.36 0.34 0 0 Z " fill="#E18F09" transform="translate(90,129)"/>
<path d="M0 0 C0.66 0.33 1.32 0.66 2 1 C1.34 1.66 0.68 2.32 0 3 C0 3.99 0 4.98 0 6 C-0.99 6.66 -1.98 7.32 -3 8 C-3.66 7.67 -4.32 7.34 -5 7 C-3.70700306 4.11562221 -2.34058637 2.12780579 0 0 Z " fill="#E4DBD9" transform="translate(134,106)"/>
<path d="M0 0 C0.33 0.66 0.66 1.32 1 2 C1.66 2.33 2.32 2.66 3 3 C1.35 5.64 -0.3 8.28 -2 11 C-3.28485596 5.86057616 -2.22194431 4.62164416 0 0 Z " fill="#D18207" transform="translate(113,82)"/>
<path d="M0 0 C1.134375 0.020625 2.26875 0.04125 3.4375 0.0625 C4.0975 1.3825 4.7575 2.7025 5.4375 4.0625 C-1.1875 3.3125 -1.1875 3.3125 -4.5625 1.0625 C-3.5625 0.0625 -3.5625 0.0625 0 0 Z " fill="#624031" transform="translate(97.5625,28.9375)"/>
<path d="M0 0 C1.65 0 3.3 0 5 0 C4.34 1.98 3.68 3.96 3 6 C2.67 5.34 2.34 4.68 2 4 C0.68 4 -0.64 4 -2 4 C-1.34 2.68 -0.68 1.36 0 0 Z " fill="#EA9C14" transform="translate(58,146)"/>
<path d="M0 0 C0 3.17370278 -0.30933342 4.3794668 -2 7 C-4.125 8.25 -4.125 8.25 -6 9 C-4.68775452 5.06326356 -3.08089673 2.77280706 0 0 Z " fill="#CB8B56" transform="translate(122,134)"/>
<path d="M0 0 C0.33 0 0.66 0 1 0 C1.17754126 3.90590763 1.20731737 6.68902394 -1 10 C-1.99 10.495 -1.99 10.495 -3 11 C-3.32434322 6.35108046 -2.776422 3.77593392 0 0 Z " fill="#DC8E1C" transform="translate(44,126)"/>
<path d="M0 0 C0.33 0 0.66 0 1 0 C1 1.98 1 3.96 1 6 C-0.65 6.33 -2.3 6.66 -4 7 C-4 6.01 -4 5.02 -4 4 C-2.68 3.34 -1.36 2.68 0 2 C0 1.34 0 0.68 0 0 Z " fill="#ECB555" transform="translate(80,87)"/>
<path d="M0 0 C1.32 0.66 2.64 1.32 4 2 C3.67 3.32 3.34 4.64 3 6 C1.68 6 0.36 6 -1 6 C-0.67 4.02 -0.34 2.04 0 0 Z " fill="#825747" transform="translate(106,44)"/>
<path d="M0 0 C1.65 0 3.3 0 5 0 C5.625 1.875 5.625 1.875 6 4 C5.34 4.66 4.68 5.32 4 6 C3.67 4.68 3.34 3.36 3 2 C1.68 2.99 0.36 3.98 -1 5 C-0.67 3.35 -0.34 1.7 0 0 Z " fill="#DEAB93" transform="translate(70,30)"/>
<path d="M0 0 C0.99 0 1.98 0 3 0 C3 0.66 3 1.32 3 2 C3.99 2 4.98 2 6 2 C6 2.66 6 3.32 6 4 C2.7 4.66 -0.6 5.32 -4 6 C-3.01 4.68 -2.02 3.36 -1 2 C-0.67 1.34 -0.34 0.68 0 0 Z " fill="#F6A71E" transform="translate(126,133)"/>
<path d="M0 0 C0.33 0.66 0.66 1.32 1 2 C1.66 2 2.32 2 3 2 C3.625 4.875 3.625 4.875 4 8 C3.34 8.66 2.68 9.32 2 10 C2 9.01 2 8.02 2 7 C1.34 7 0.68 7 0 7 C0 4.69 0 2.38 0 0 Z " fill="#A26B53" transform="translate(89,30)"/>
<path d="M0 0 C0.33 0 0.66 0 1 0 C1 3.96 1 7.92 1 12 C1.66 12.33 2.32 12.66 3 13 C1.68 13.33 0.36 13.66 -1 14 C-0.67 9.38 -0.34 4.76 0 0 Z " fill="#392822" transform="translate(109,22)"/>
<path d="M0 0 C2.64 0.66 5.28 1.32 8 2 C8.33 3.32 8.66 4.64 9 6 C4.545 4.02 4.545 4.02 0 2 C0 1.34 0 0.68 0 0 Z " fill="#78574A" transform="translate(96,24)"/>
<path d="M0 0 C0 3.20395416 -0.74335022 5.09399739 -2 8 C-2.99 8 -3.98 8 -5 8 C-5 6.02 -5 4.04 -5 2 C-4.360625 1.855625 -3.72125 1.71125 -3.0625 1.5625 C-1.02454854 1.18992819 -1.02454854 1.18992819 0 0 Z " fill="#513C35" transform="translate(73,15)"/>
<path d="M0 0 C0.33 0.99 0.66 1.98 1 3 C2.32 3 3.64 3 5 3 C4.67 4.32 4.34 5.64 4 7 C2.68 6.67 1.36 6.34 0 6 C-1.125 2.25 -1.125 2.25 0 0 Z " fill="#CBA292" transform="translate(117,124)"/>
<path d="M0 0 C0 3.9519815 -1.37176172 5.14648416 -4 8 C-4.99 8.33 -5.98 8.66 -7 9 C-6.82374165 6.62051228 -6.30280227 5.29774151 -4.59765625 3.62109375 C-3.09350908 2.37884514 -1.54870149 1.18623944 0 0 Z " fill="#EDE5E3" transform="translate(126,110)"/>
<path d="M0 0 C0.66 0 1.32 0 2 0 C1.67 2.64 1.34 5.28 1 8 C0.01 7.67 -0.98 7.34 -2 7 C-1.34 4.69 -0.68 2.38 0 0 Z " fill="#E89709" transform="translate(96,84)"/>
<path d="M0 0 C0.33 0 0.66 0 1 0 C1 2.97 1 5.94 1 9 C0.34 9 -0.32 9 -1 9 C-1.625 6.1875 -1.625 6.1875 -2 3 C-1.34 2.01 -0.68 1.02 0 0 Z " fill="#855E4E" transform="translate(99,56)"/>
<path d="M0 0 C2.16874252 0.50603992 3.99967627 0.99983813 6 2 C5.67 3.32 5.34 4.64 5 6 C3.68 6.33 2.36 6.66 1 7 C1 6.34 1 5.68 1 5 C1.66 5 2.32 5 3 5 C2.65213292 3.02463255 2.65213292 3.02463255 2 1 C1.34 0.67 0.68 0.34 0 0 Z " fill="#AB7860" transform="translate(84,49)"/>
<path d="M0 0 C0.66 0.33 1.32 0.66 2 1 C2 2.98 2 4.96 2 7 C0.68 6.34 -0.64 5.68 -2 5 C-1.125 1.125 -1.125 1.125 0 0 Z " fill="#C4B9B5" transform="translate(143,107)"/>
<path d="M0 0 C0.93423645 3.01031744 1.04449911 3.86650268 0 7 C-0.99 7 -1.98 7 -3 7 C-3 5.02 -3 3.04 -3 1 C-2.01 1.495 -2.01 1.495 -1 2 C-0.67 1.34 -0.34 0.68 0 0 Z " fill="#FBB117" transform="translate(44,95)"/>
<path d="M0 0 C0.33 0 0.66 0 1 0 C1.63019694 8.19256018 1.63019694 8.19256018 -1 11.5625 C-1.99 12.2740625 -1.99 12.2740625 -3 13 C-2.125 8.125 -2.125 8.125 -1 7 C-0.63239269 4.67182036 -0.29758419 2.3381615 0 0 Z " fill="#A16F58" transform="translate(102,35)"/>
<path d="M0 0 C0.99 0.33 1.98 0.66 3 1 C3 1.99 3 2.98 3 4 C3.66 4.33 4.32 4.66 5 5 C3.02 5 1.04 5 -1 5 C-0.67 3.35 -0.34 1.7 0 0 Z " fill="#D0A28C" transform="translate(78,38)"/>
<path d="M0 0 C0.99 0 1.98 0 3 0 C3 1.98 3 3.96 3 6 C2.01 6 1.02 6 0 6 C0 4.02 0 2.04 0 0 Z " fill="#5F4B3B" transform="translate(80,93)"/>
<path d="M0 0 C3.14737182 0.69941596 6.02588876 1.76078698 9 3 C8.401875 3.144375 7.80375 3.28875 7.1875 3.4375 C5.43849596 3.8872439 3.71322977 4.42892341 2 5 C2 3.68 2 2.36 2 1 C1.34 0.67 0.68 0.34 0 0 Z " fill="#BC7F33" transform="translate(121,79)"/>
<path d="M0 0 C0.99 0.66 1.98 1.32 3 2 C2.01 3.485 2.01 3.485 1 5 C-0.32 5 -1.64 5 -3 5 C-3.66 3.68 -4.32 2.36 -5 1 C-3.68 1.33 -2.36 1.66 -1 2 C-0.67 1.34 -0.34 0.68 0 0 Z " fill="#A1887C" transform="translate(83,75)"/>
<path d="M0 0 C0.33 0.66 0.66 1.32 1 2 C-0.98 4.31 -2.96 6.62 -5 9 C-5 6 -5 6 -3 3 C-2.34 3 -1.68 3 -1 3 C-0.67 2.01 -0.34 1.02 0 0 Z " fill="#DED1CC" transform="translate(126,105)"/>
<path d="M0 0 C0.33 0 0.66 0 1 0 C0.67 2.31 0.34 4.62 0 7 C-0.99 7 -1.98 7 -3 7 C-1.125 1.125 -1.125 1.125 0 0 Z " fill="#FBB93D" transform="translate(31,85)"/>
<path d="M0 0 C0 0.99 0 1.98 0 3 C-0.33 3.33 -0.66 3.66 -1 4 C-1.36760731 6.32817964 -1.70241581 8.6618385 -2 11 C-2.33 11 -2.66 11 -3 11 C-3.75 7.75 -3.75 7.75 -4 4 C-2.0625 1.5625 -2.0625 1.5625 0 0 Z " fill="#7C5748" transform="translate(103,51)"/>
<path d="M0 0 C2.475 0.495 2.475 0.495 5 1 C4.67 1.99 4.34 2.98 4 4 C2.68 4 1.36 4 0 4 C0 2.68 0 1.36 0 0 Z " fill="#7B4A40" transform="translate(88,45)"/>
<path d="M0 0 C0.66 0 1.32 0 2 0 C4.125 4.625 4.125 4.625 3 8 C0 3.375 0 3.375 0 0 Z " fill="#AF7D5F" transform="translate(66,44)"/>
<path d="M0 0 C0.93065133 2.60582371 1.14917407 3.64198224 0.0625 6.25 C-0.4634375 7.11625 -0.4634375 7.11625 -1 8 C-1.66 8 -2.32 8 -3 8 C-2.37240135 5.07120629 -1.41377341 2.63904371 0 0 Z " fill="#CC987F" transform="translate(69,28)"/>
</svg>
