<?xml version="1.0" standalone="no"?>
<!DOCTYPE svg PUBLIC "-//W3C//DTD SVG 20010904//EN"
 "http://www.w3.org/TR/2001/REC-SVG-20010904/DTD/svg10.dtd">
<svg version="1.0" xmlns="http://www.w3.org/2000/svg"
 width="300.000000pt" height="300.000000pt" viewBox="0 0 300.000000 300.000000"
 preserveAspectRatio="xMidYMid meet">
<metadata>
Created by potrace 1.16, written by Peter Selinger 2001-2019
</metadata>
<g transform="translate(0.000000,300.000000) scale(0.100000,-0.100000)"
fill="#000000" stroke="none">
<path d="M1205 2979 c-604 -125 -1064 -587 -1185 -1190 -29 -144 -29 -434 0
-578 122 -606 585 -1069 1191 -1191 144 -29 434 -29 578 0 606 122 1069 585
1191 1191 29 144 29 434 0 578 -122 606 -585 1069 -1191 1191 -138 27 -449 27
-584 -1z m315 -157 c19 -11 46 -22 60 -26 31 -8 76 -47 84 -73 4 -12 1 -32 -5
-47 -10 -21 -9 -29 4 -44 22 -24 13 -32 -39 -32 -33 0 -46 -5 -54 -19 -5 -11
-19 -23 -30 -26 -27 -9 -50 -55 -57 -118 -7 -65 -18 -85 -50 -98 -20 -7 -30
-6 -43 6 -19 17 -30 19 -30 5 0 -5 6 -10 13 -10 6 -1 30 -16 52 -35 35 -30 37
-35 18 -35 -12 0 -25 -4 -28 -10 -3 -5 -20 -7 -38 -5 -28 4 -26 2 16 -17 40
-18 47 -26 47 -49 0 -17 7 -32 19 -38 29 -16 33 -49 7 -57 -11 -3 -33 -17 -47
-31 -24 -22 -31 -23 -93 -17 -51 5 -75 13 -97 31 -37 31 -37 13 -1 -44 19 -30
49 -57 104 -90 43 -25 79 -52 82 -59 5 -14 -16 -80 -32 -96 -6 -6 -8 -17 -5
-24 10 -27 -45 -14 -91 21 -26 19 -50 35 -54 35 -4 0 -20 11 -35 25 -27 26
-27 27 -27 160 0 87 -4 136 -11 141 -17 10 -59 106 -59 136 0 15 -5 30 -11 33
-33 21 -42 178 -13 223 15 23 25 24 66 7 13 -5 19 5 33 52 18 63 82 178 118
211 21 20 34 22 162 30 17 1 46 -6 65 -16z m130 -401 l55 -6 3 -48 c3 -44 0
-51 -32 -81 -24 -21 -36 -41 -36 -58 0 -26 -50 -88 -71 -88 -19 0 -8 43 16 62
17 13 25 29 25 51 0 22 -3 28 -9 18 -5 -7 -14 -10 -21 -6 -8 5 -9 10 -1 18 8
8 2 26 -19 64 -43 76 -40 111 9 91 14 -6 51 -13 81 -17z m-600 -653 c0 -68 68
-138 181 -186 71 -31 109 -37 109 -18 0 9 5 16 10 16 6 0 11 -21 12 -47 1 -43
2 -44 5 -11 3 25 8 35 17 32 8 -3 51 10 97 28 46 18 101 33 121 33 30 1 44 9
77 46 22 24 40 39 41 33 0 -5 -18 -81 -40 -167 -47 -185 -115 -483 -126 -547
-5 -36 -8 -41 -15 -25 -6 16 -8 14 -8 -12 -1 -18 -5 -54 -10 -80 -5 -26 -15
-78 -22 -115 -7 -38 -16 -68 -20 -68 -4 0 -10 16 -13 35 -7 33 -22 53 -32 42
-3 -3 -1 -33 4 -66 l9 -61 -43 0 c-46 0 -67 15 -34 25 26 8 26 25 0 25 -11 0
-20 6 -20 14 0 8 -3 21 -6 30 -4 11 1 19 16 24 l22 8 -25 17 -26 17 -3 -77
c-2 -63 -6 -78 -20 -81 -13 -3 -18 9 -23 62 -4 36 -11 66 -16 66 -5 0 -10 33
-11 73 l-2 72 -3 -65 c-4 -70 -19 -101 -30 -61 -6 23 -6 23 -18 -5 -17 -41
-39 -136 -37 -155 2 -12 -10 -20 -44 -28 -51 -13 -114 -66 -114 -97 0 -10 -7
-44 -16 -76 -15 -52 -19 -58 -43 -58 -42 0 -98 44 -104 82 -19 107 -19 128 -3
153 9 14 25 25 36 25 16 0 18 4 11 23 -5 12 -17 24 -27 26 -32 6 -44 22 -44
57 0 19 -4 42 -9 52 -18 37 -30 84 -24 99 4 11 2 14 -5 9 -7 -4 -12 -2 -12 3
0 6 -5 11 -11 11 -8 0 -9 -14 -4 -47 5 -27 9 -77 10 -113 2 -62 1 -66 -20 -68
-16 -1 -25 5 -30 21 -4 15 -8 18 -12 9 -7 -17 45 -72 68 -72 10 0 20 -8 23
-17 10 -33 27 -155 22 -160 -2 -3 -31 12 -63 33 -76 49 -189 104 -303 149
-141 55 -140 54 -140 140 0 40 7 109 15 152 8 43 15 108 15 145 0 64 18 156
38 195 5 10 12 36 15 58 4 22 15 72 26 110 17 63 25 75 81 126 33 31 87 67
118 82 45 20 393 140 425 146 4 0 7 -9 7 -21z m979 -92 c188 -72 223 -90 269
-140 82 -89 108 -179 131 -451 16 -185 16 -214 3 -247 -7 -21 -19 -36 -25 -35
-6 1 -12 -10 -12 -24 0 -14 -6 -37 -13 -50 -14 -26 -14 -26 -278 -60 -40 -5
-99 -22 -139 -40 -64 -29 -72 -30 -107 -18 -21 7 -38 18 -38 26 0 7 -4 13 -10
13 -5 0 -10 -6 -10 -14 0 -8 -16 -15 -42 -19 -24 -2 -52 -8 -62 -13 -17 -6
-18 -4 -13 19 4 14 11 69 17 122 5 53 17 135 26 183 54 294 79 410 120 564 26
95 49 185 51 201 3 15 8 27 11 27 2 0 57 -20 121 -44z"/>
<path d="M762 1405 c-1 -16 -5 -41 -7 -55 -4 -19 -3 -20 3 -7 7 17 9 17 21 4
10 -13 9 -17 -6 -26 -14 -8 -16 -12 -5 -22 6 -7 12 -18 12 -23 0 -6 -5 -4 -10
4 -7 11 -10 6 -10 -22 0 -33 3 -37 28 -40 44 -5 83 3 89 19 3 8 1 18 -6 22 -9
6 -8 11 4 21 10 8 15 9 15 1 0 -18 18 -13 23 7 3 9 5 1 5 -18 0 -19 -2 -29 -5
-22 -8 21 -23 13 -23 -13 0 -19 5 -25 23 -25 20 0 23 5 25 62 2 34 6 66 8 70
3 4 -2 8 -11 8 -8 0 -18 -7 -21 -15 -8 -21 -21 -19 -27 5 -9 34 -27 22 -27
-19 0 -21 -7 -52 -15 -67 -14 -27 -15 -27 -15 -6 0 27 -16 29 -23 2 -3 -11
-11 -20 -18 -20 -10 0 -10 3 -2 11 6 6 9 18 6 25 -3 8 1 14 11 14 25 0 40 38
27 67 -9 20 -17 24 -36 19 -22 -6 -24 -3 -28 31 -3 33 -4 34 -5 8z"/>
</g>
</svg>
